<?xml version="1.0" encoding="UTF-8" standalone="no"?>
<!-- Generator: Adobe Illustrator 15.1.0, SVG Export Plug-In . SVG Version: 6.00 Build 0)  -->

<svg
   xmlns:dc="http://purl.org/dc/elements/1.1/"
   xmlns:cc="http://creativecommons.org/ns#"
   xmlns:rdf="http://www.w3.org/1999/02/22-rdf-syntax-ns#"
   xmlns:svg="http://www.w3.org/2000/svg"
   xmlns="http://www.w3.org/2000/svg"
   xmlns:sodipodi="http://sodipodi.sourceforge.net/DTD/sodipodi-0.dtd"
   xmlns:inkscape="http://www.inkscape.org/namespaces/inkscape"
   version="1.1"
   id="Layer_1"
   x="0px"
   y="0px"
   width="222.041"
   height="182.981"
   viewBox="0 0 222.04099 182.981"
   enable-background="new 0 0 595.28 841.89"
   xml:space="preserve"
   inkscape:version="0.91 r13725"
   sodipodi:docname="weiti_logo.svg"><metadata
     id="metadata161"><rdf:RDF><cc:Work
         rdf:about=""><dc:format>image/svg+xml</dc:format><dc:type
           rdf:resource="http://purl.org/dc/dcmitype/StillImage" /><dc:title></dc:title></cc:Work></rdf:RDF></metadata><defs
     id="defs159" /><sodipodi:namedview
     pagecolor="#ffffff"
     bordercolor="#666666"
     borderopacity="1"
     objecttolerance="10"
     gridtolerance="10"
     guidetolerance="10"
     inkscape:pageopacity="0"
     inkscape:pageshadow="2"
     inkscape:window-width="3840"
     inkscape:window-height="2034"
     id="namedview157"
     showgrid="false"
     fit-margin-top="0"
     fit-margin-left="0"
     fit-margin-right="0"
     fit-margin-bottom="0"
     inkscape:zoom="2.2425732"
     inkscape:cx="36.106377"
     inkscape:cy="-155.05103"
     inkscape:window-x="0"
     inkscape:window-y="0"
     inkscape:window-maximized="1"
     inkscape:current-layer="Layer_1" /><g
     id="g3"
     transform="translate(-188.125,-95.566)"><path
       d="m 355.626,169.53 c -12.102,0.2 -24.267,0.802 -36.479,1.819 -6.969,0.582 -13.897,1.303 -20.788,2.144 l 3.511,-8.175 c 5.97,-0.701 11.97,-1.303 18.004,-1.806 12.449,-1.038 24.85,-1.646 37.188,-1.832 l 1.432,-7.843 c -12.571,0.171 -25.205,0.779 -37.894,1.838 -5.1,0.423 -10.176,0.929 -15.237,1.489 l 3.496,-8.139 c 4.143,-0.441 8.295,-0.841 12.463,-1.188 12.93,-1.08 25.8,-1.688 38.607,-1.85 l 1.433,-7.846 c -13.039,0.15 -26.147,0.758 -39.313,1.858 -19.182,1.599 -38.073,4.2 -56.637,7.729 l -25.237,43.758 c 25.46,-5.924 51.571,-10.072 78.248,-12.298 11.975,-0.997 23.9,-1.593 35.769,-1.804 l 1.434,-7.854 z"
       id="path5"
       inkscape:connector-curvature="0"
       style="fill:#325084" /><linearGradient
       id="SVGID_1_"
       gradientUnits="userSpaceOnUse"
       x1="832.23633"
       y1="-544.81543"
       x2="954.51959"
       y2="-495.40979"
       gradientTransform="matrix(0.986,0.1666,-0.1666,0.986,-664.8853,542.6484)"><stop
         offset="0.03"
         style="stop-color:#FFFFFF"
         id="stop8" /><stop
         offset="0.0544"
         style="stop-color:#E5F4FB"
         id="stop10" /><stop
         offset="0.1068"
         style="stop-color:#A2D9F1"
         id="stop12" /><stop
         offset="0.1823"
         style="stop-color:#38AEE1"
         id="stop14" /><stop
         offset="0.22"
         style="stop-color:#0097D9"
         id="stop16" /><stop
         offset="0.67"
         style="stop-color:#0097D9"
         id="stop18" /><stop
         offset="0.707"
         style="stop-color:#3BAFE2"
         id="stop20" /><stop
         offset="0.744"
         style="stop-color:#6FC4EA"
         id="stop22" /><stop
         offset="0.7816"
         style="stop-color:#9BD6F0"
         id="stop24" /><stop
         offset="0.8191"
         style="stop-color:#BFE5F5"
         id="stop26" /><stop
         offset="0.8567"
         style="stop-color:#DBF0FA"
         id="stop28" /><stop
         offset="0.8943"
         style="stop-color:#EFF9FD"
         id="stop30" /><stop
         offset="0.932"
         style="stop-color:#FBFDFE"
         id="stop32" /><stop
         offset="0.97"
         style="stop-color:#FFFFFF"
         id="stop34" /></linearGradient><path
       d="M 340.124,233.611 C 323.208,196.508 297.728,152.394 267.806,109.665 l -4.949,7.797 c 28.201,41.13 54.676,87.331 74.725,130.252 l 2.542,-14.103 z"
       id="path36"
       inkscape:connector-curvature="0"
       style="fill:url(#SVGID_1_)" /><linearGradient
       id="SVGID_2_"
       gradientUnits="userSpaceOnUse"
       x1="839.36432"
       y1="-562.86621"
       x2="952.66272"
       y2="-517.0907"
       gradientTransform="matrix(0.986,0.1666,-0.1666,0.986,-664.8853,542.6484)"><stop
         offset="0.03"
         style="stop-color:#FFFFFF"
         id="stop39" /><stop
         offset="0.0544"
         style="stop-color:#E5F4FB"
         id="stop41" /><stop
         offset="0.1068"
         style="stop-color:#A2D9F1"
         id="stop43" /><stop
         offset="0.1823"
         style="stop-color:#38AEE1"
         id="stop45" /><stop
         offset="0.22"
         style="stop-color:#0097D9"
         id="stop47" /><stop
         offset="0.67"
         style="stop-color:#0097D9"
         id="stop49" /><stop
         offset="0.707"
         style="stop-color:#3BAFE2"
         id="stop51" /><stop
         offset="0.744"
         style="stop-color:#6FC4EA"
         id="stop53" /><stop
         offset="0.7816"
         style="stop-color:#9BD6F0"
         id="stop55" /><stop
         offset="0.8191"
         style="stop-color:#BFE5F5"
         id="stop57" /><stop
         offset="0.8567"
         style="stop-color:#DBF0FA"
         id="stop59" /><stop
         offset="0.8943"
         style="stop-color:#EFF9FD"
         id="stop61" /><stop
         offset="0.932"
         style="stop-color:#FBFDFE"
         id="stop63" /><stop
         offset="0.97"
         style="stop-color:#FFFFFF"
         id="stop65" /></linearGradient><path
       d="M 343.462,209.295 C 326.888,174.562 303.458,134.532 276.298,95.566 l -4.959,7.807 c 25.932,38.016 50.346,80.241 69.566,120.142 l 2.557,-14.22 z"
       id="path67"
       inkscape:connector-curvature="0"
       style="fill:url(#SVGID_2_)" /><g
       id="g69"><path
         d="m 325.959,170.831 c -2.269,0.161 -4.539,0.332 -6.812,0.519 -2.94,0.25 -5.873,0.524 -8.801,0.815 -0.005,0 -0.005,0 -0.008,0 -0.019,0.002 -0.031,0.005 -0.047,0.005 l 0.003,0 c -3.994,0.402 -7.973,0.841 -11.936,1.323 l -4.229,8.279 c 6.751,-0.87 13.545,-1.62 20.371,-2.237 l -1.669,-2.964 1.708,2.959 c 1.292,-0.117 2.587,-0.231 3.882,-0.343 3.642,-0.301 7.272,-0.566 10.903,-0.794 l -3.365,-7.562 z"
         id="path71"
         inkscape:connector-curvature="0"
         style="fill:#325084" /><path
         d="m 319.873,163.512 c 0.911,-0.078 1.824,-0.145 2.735,-0.218 l -3.34,-7.5 c -4.651,0.402 -9.286,0.858 -13.906,1.37 l 0.698,7.68 c 4.589,-0.502 9.191,-0.948 13.813,-1.332 z"
         id="path73"
         inkscape:connector-curvature="0"
         style="fill:#325084" /></g></g><g
     id="g75"
     transform="translate(-188.125,-95.566)"><path
       d="m 221.282,258.348 -1.574,0 -2.43,-8.36 -2.413,8.36 -1.574,0 -3.116,-11.929 1.91,0 2.077,8.527 2.396,-8.527 1.458,0 2.396,8.527 2.078,-8.527 1.909,0 -3.117,11.929 z"
       id="path77"
       inkscape:connector-curvature="0"
       style="fill:#325084" /><path
       d="m 230.04,253.439 0,4.909 -1.81,0 0,-4.909 -3.568,-7.02 1.977,0 2.497,5.244 2.496,-5.244 1.977,0 -3.569,7.02 z"
       id="path79"
       inkscape:connector-curvature="0"
       style="fill:#325084" /><path
       d="m 242.519,257.226 c -0.754,0.754 -1.843,1.122 -3.082,1.122 l -4.188,0 0,-11.929 4.188,0 c 1.239,0 2.328,0.368 3.082,1.122 1.29,1.29 1.207,3.032 1.207,4.759 0,1.726 0.083,3.635 -1.207,4.926 z m -1.24,-8.378 c -0.503,-0.553 -1.173,-0.804 -2.027,-0.804 l -2.195,0 0,8.679 2.195,0 c 0.854,0 1.524,-0.251 2.027,-0.805 0.62,-0.687 0.637,-1.977 0.637,-3.618 0,-1.642 -0.017,-2.764 -0.637,-3.452 z"
       id="path81"
       inkscape:connector-curvature="0"
       style="fill:#325084" /><path
       d="m 245.649,258.348 0,-1.559 5.512,-8.745 -5.277,0 0,-1.625 7.405,0 0,1.475 -5.546,8.829 5.546,0 0,1.625 -7.64,0 z"
       id="path83"
       inkscape:connector-curvature="0"
       style="fill:#325084" /><path
       d="m 255.648,258.348 0,-11.929 1.809,0 0,11.929 -1.809,0 z"
       id="path85"
       inkscape:connector-curvature="0"
       style="fill:#325084" /><path
       d="m 267.424,258.348 -0.82,-2.396 -4.708,0 -0.821,2.396 -1.927,0 4.373,-11.929 1.458,0 4.372,11.929 -1.927,0 z m -3.133,-9.231 -1.859,5.294 3.669,0 -1.81,-5.294 z"
       id="path87"
       inkscape:connector-curvature="0"
       style="fill:#325084" /><path
       d="m 271.274,258.348 0,-4.457 -1.156,0.737 0,-1.558 1.156,-0.721 0,-5.931 1.81,0 0,4.791 2.362,-1.49 0,1.524 -2.362,1.491 0,3.987 5.729,0 0,1.625 -7.539,0 z"
       id="path89"
       inkscape:connector-curvature="0"
       style="fill:#325084" /><path
       d="m 284.892,258.348 0,-11.929 7.623,0 0,1.625 -5.815,0 0,3.484 4.96,0 0,1.608 -4.96,0 0,3.586 5.814,0 0,1.625 -7.622,0 z"
       id="path91"
       inkscape:connector-curvature="0"
       style="fill:#325084" /><path
       d="m 294.991,258.348 0,-11.929 1.809,0 0,10.304 5.747,0 0,1.625 -7.556,0 z"
       id="path93"
       inkscape:connector-curvature="0"
       style="fill:#325084" /><path
       d="m 304.604,258.348 0,-11.929 7.623,0 0,1.625 -5.814,0 0,3.484 4.96,0 0,1.608 -4.96,0 0,3.586 5.814,0 0,1.625 -7.623,0 z"
       id="path95"
       inkscape:connector-curvature="0"
       style="fill:#325084" /><path
       d="m 321.874,258.348 -3.351,-5.881 -2.011,2.413 0,3.468 -1.809,0 0,-11.929 1.809,0 0,5.998 4.876,-5.998 2.212,0 -3.871,4.674 4.272,7.255 -2.127,0 z"
       id="path97"
       inkscape:connector-curvature="0"
       style="fill:#325084" /><path
       d="m 329.762,248.044 0,10.304 -1.81,0 0,-10.304 -3.283,0 0,-1.625 8.377,0 0,1.625 -3.284,0 z"
       id="path99"
       inkscape:connector-curvature="0"
       style="fill:#325084" /><path
       d="m 341.688,258.348 -2.514,-5.026 -2.262,0 0,5.026 -1.809,0 0,-11.929 4.624,0 c 2.262,0 3.702,1.457 3.702,3.484 0,1.709 -1.039,2.798 -2.379,3.167 l 2.748,5.277 -2.11,0 z m -2.094,-10.304 -2.681,0 0,3.736 2.681,0 c 1.207,0 2.027,-0.688 2.027,-1.86 0,-1.172 -0.82,-1.876 -2.027,-1.876 z"
       id="path101"
       inkscape:connector-curvature="0"
       style="fill:#325084" /><path
       d="m 353.078,257.175 c -0.821,0.821 -1.877,1.273 -3.15,1.273 -1.272,0 -2.312,-0.452 -3.133,-1.273 -1.173,-1.173 -1.156,-2.496 -1.156,-4.792 0,-2.295 -0.017,-3.618 1.156,-4.791 0.821,-0.821 1.86,-1.273 3.133,-1.273 1.273,0 2.329,0.452 3.15,1.273 1.173,1.173 1.139,2.496 1.139,4.791 0,2.296 0.034,3.619 -1.139,4.792 z m -1.374,-8.494 c -0.419,-0.452 -1.072,-0.737 -1.776,-0.737 -0.703,0 -1.356,0.285 -1.775,0.737 -0.587,0.637 -0.704,1.307 -0.704,3.702 0,2.396 0.117,3.066 0.704,3.703 0.419,0.452 1.072,0.737 1.775,0.737 0.704,0 1.357,-0.285 1.776,-0.737 0.586,-0.637 0.704,-1.307 0.704,-3.703 0,-2.395 -0.118,-3.065 -0.704,-3.702 z"
       id="path103"
       inkscape:connector-curvature="0"
       style="fill:#325084" /><path
       d="m 364.216,258.348 -5.513,-8.394 0,8.394 -1.809,0 0,-11.929 1.658,0 5.512,8.377 0,-8.377 1.81,0 0,11.929 -1.658,0 z"
       id="path105"
       inkscape:connector-curvature="0"
       style="fill:#325084" /><path
       d="m 368.987,258.348 0,-11.929 1.809,0 0,11.929 -1.809,0 z"
       id="path107"
       inkscape:connector-curvature="0"
       style="fill:#325084" /><path
       d="m 381.081,258.348 -3.351,-5.881 -2.011,2.413 0,3.468 -1.809,0 0,-11.929 1.809,0 0,5.998 4.876,-5.998 2.212,0 -3.871,4.674 4.272,7.255 -2.127,0 z"
       id="path109"
       inkscape:connector-curvature="0"
       style="fill:#325084" /><path
       d="m 384.932,258.348 0,-11.929 1.809,0 0,11.929 -1.809,0 z"
       id="path111"
       inkscape:connector-curvature="0"
       style="fill:#325084" /><path
       d="m 188.125,278.447 0,-11.929 1.809,0 0,11.929 -1.809,0 z"
       id="path113"
       inkscape:connector-curvature="0"
       style="fill:#325084" /><path
       d="m 201.105,268.143 0,10.304 -1.81,0 0,-10.304 -3.283,0 0,-1.625 8.377,0 0,1.625 -3.284,0 z"
       id="path115"
       inkscape:connector-curvature="0"
       style="fill:#325084" /><path
       d="m 206.448,278.447 0,-11.929 7.623,0 0,1.625 -5.814,0 0,3.484 4.96,0 0,1.608 -4.96,0 0,3.586 5.814,0 0,1.625 -7.623,0 z"
       id="path117"
       inkscape:connector-curvature="0"
       style="fill:#325084" /><path
       d="m 220.4,278.547 c -1.239,0 -2.312,-0.452 -3.133,-1.273 -1.173,-1.173 -1.156,-2.496 -1.156,-4.792 0,-2.295 -0.017,-3.618 1.156,-4.791 0.821,-0.821 1.894,-1.273 3.133,-1.273 2.195,0 3.837,1.29 4.256,3.669 l -1.843,0 c -0.285,-1.206 -1.089,-2.044 -2.413,-2.044 -0.703,0 -1.34,0.268 -1.759,0.721 -0.586,0.637 -0.721,1.323 -0.721,3.719 0,2.396 0.135,3.083 0.721,3.72 0.419,0.452 1.056,0.721 1.759,0.721 1.324,0 2.145,-0.838 2.43,-2.044 l 1.826,0 c -0.402,2.377 -2.094,3.667 -4.256,3.667 z"
       id="path119"
       inkscape:connector-curvature="0"
       style="fill:#325084" /><path
       d="m 233.717,278.447 0,-5.211 -4.843,0 0,5.211 -1.809,0 0,-11.929 1.809,0 0,5.093 4.843,0 0,-5.093 1.809,0 0,11.929 -1.809,0 z"
       id="path121"
       inkscape:connector-curvature="0"
       style="fill:#325084" /><path
       d="m 245.961,278.447 -5.513,-8.394 0,8.394 -1.809,0 0,-11.929 1.658,0 5.512,8.377 0,-8.377 1.81,0 0,11.929 -1.658,0 z"
       id="path123"
       inkscape:connector-curvature="0"
       style="fill:#325084" /><path
       d="m 250.731,278.447 0,-11.929 1.809,0 0,11.929 -1.809,0 z"
       id="path125"
       inkscape:connector-curvature="0"
       style="fill:#325084" /><path
       d="m 262.826,278.447 -3.351,-5.881 -2.011,2.413 0,3.468 -1.809,0 0,-11.929 1.809,0 0,5.998 4.876,-5.998 2.211,0 -3.87,4.674 4.272,7.255 -2.127,0 z"
       id="path127"
       inkscape:connector-curvature="0"
       style="fill:#325084" /><path
       d="m 270.696,278.447 0,-11.929 1.809,0 0,11.929 -1.809,0 z"
       id="path129"
       inkscape:connector-curvature="0"
       style="fill:#325084" /><path
       d="m 282.941,278.447 -5.513,-8.394 0,8.394 -1.809,0 0,-11.929 1.658,0 5.512,8.377 0,-8.377 1.81,0 0,11.929 -1.658,0 z"
       id="path131"
       inkscape:connector-curvature="0"
       style="fill:#325084" /><path
       d="m 289.521,268.143 0,3.636 4.96,0 0,1.625 -4.96,0 0,5.043 -1.809,0 0,-11.929 7.623,0 0,1.625 -5.814,0 z"
       id="path133"
       inkscape:connector-curvature="0"
       style="fill:#325084" /><path
       d="m 304.179,277.274 c -0.821,0.821 -1.877,1.273 -3.15,1.273 -1.272,0 -2.312,-0.452 -3.133,-1.273 -1.173,-1.173 -1.156,-2.496 -1.156,-4.792 0,-2.295 -0.017,-3.618 1.156,-4.791 0.821,-0.821 1.86,-1.273 3.133,-1.273 1.273,0 2.329,0.452 3.15,1.273 1.173,1.173 1.139,2.496 1.139,4.791 -10e-4,2.296 0.034,3.619 -1.139,4.792 z m -1.374,-8.494 c -0.419,-0.452 -1.072,-0.737 -1.776,-0.737 -0.703,0 -1.356,0.285 -1.775,0.737 -0.587,0.637 -0.704,1.307 -0.704,3.702 0,2.396 0.117,3.066 0.704,3.703 0.419,0.452 1.072,0.737 1.775,0.737 0.704,0 1.357,-0.285 1.776,-0.737 0.587,-0.637 0.704,-1.307 0.704,-3.703 0,-2.396 -0.117,-3.065 -0.704,-3.702 z"
       id="path135"
       inkscape:connector-curvature="0"
       style="fill:#325084" /><path
       d="m 314.58,278.447 -2.513,-5.026 -2.263,0 0,5.026 -1.809,0 0,-11.929 4.624,0 c 2.262,0 3.702,1.457 3.702,3.484 0,1.709 -1.038,2.798 -2.379,3.167 l 2.748,5.277 -2.11,0 z m -2.095,-10.304 -2.681,0 0,3.736 2.681,0 c 1.207,0 2.027,-0.688 2.027,-1.86 0,-1.172 -0.82,-1.876 -2.027,-1.876 z"
       id="path137"
       inkscape:connector-curvature="0"
       style="fill:#325084" /><path
       d="m 327.679,278.447 0,-7.975 -2.748,5.813 -1.34,0 -2.815,-5.813 0,7.975 -1.809,0 0,-11.929 1.809,0 3.485,7.422 3.418,-7.422 1.81,0 0,11.929 -1.81,0 z"
       id="path139"
       inkscape:connector-curvature="0"
       style="fill:#325084" /><path
       d="m 339.435,278.447 -0.82,-2.396 -4.708,0 -0.821,2.396 -1.927,0 4.373,-11.929 1.458,0 4.372,11.929 -1.927,0 z m -3.133,-9.232 -1.859,5.294 3.669,0 -1.81,-5.294 z"
       id="path141"
       inkscape:connector-curvature="0"
       style="fill:#325084" /><path
       d="m 346.736,278.547 c -1.239,0 -2.312,-0.452 -3.133,-1.273 -1.173,-1.173 -1.156,-2.496 -1.156,-4.792 0,-2.295 -0.017,-3.618 1.156,-4.791 0.821,-0.821 1.894,-1.273 3.133,-1.273 2.195,0 3.837,1.29 4.256,3.669 l -1.843,0 c -0.285,-1.206 -1.089,-2.044 -2.413,-2.044 -0.703,0 -1.34,0.268 -1.759,0.721 -0.586,0.637 -0.721,1.323 -0.721,3.719 0,2.396 0.135,3.083 0.721,3.72 0.419,0.452 1.056,0.721 1.759,0.721 1.324,0 2.145,-0.838 2.43,-2.044 l 1.826,0 c -0.402,2.377 -2.094,3.667 -4.256,3.667 z"
       id="path143"
       inkscape:connector-curvature="0"
       style="fill:#325084" /><path
       d="m 357.138,273.538 0,4.909 -1.81,0 0,-4.909 -3.568,-7.02 1.977,0 2.497,5.244 2.496,-5.244 1.977,0 -3.569,7.02 z"
       id="path145"
       inkscape:connector-curvature="0"
       style="fill:#325084" /><path
       d="m 363.233,278.547 c -1.223,0 -2.077,-0.335 -2.898,-1.156 l 1.206,-1.189 c 0.419,0.419 0.821,0.721 1.692,0.721 1.341,0 2.161,-0.821 2.161,-2.379 l 0,-8.025 1.81,0 0,8.159 c 0,2.479 -1.775,3.869 -3.971,3.869 z"
       id="path147"
       inkscape:connector-curvature="0"
       style="fill:#325084" /><path
       d="m 377.473,278.447 -5.513,-8.394 0,8.394 -1.809,0 0,-11.929 1.658,0 5.512,8.377 0,-8.377 1.81,0 0,11.929 -1.658,0 z"
       id="path149"
       inkscape:connector-curvature="0"
       style="fill:#325084" /><path
       d="m 386.146,273.538 0,4.909 -1.81,0 0,-4.909 -3.568,-7.02 1.977,0 2.496,5.244 2.497,-5.244 1.977,0 -3.569,7.02 z"
       id="path151"
       inkscape:connector-curvature="0"
       style="fill:#325084" /><path
       d="m 395.04,278.547 c -1.239,0 -2.312,-0.452 -3.133,-1.273 -1.173,-1.173 -1.156,-2.496 -1.156,-4.792 0,-2.295 -0.017,-3.618 1.156,-4.791 0.821,-0.821 1.894,-1.273 3.133,-1.273 2.195,0 3.837,1.29 4.256,3.669 l -1.843,0 c -0.285,-1.206 -1.089,-2.044 -2.413,-2.044 -0.703,0 -1.34,0.268 -1.759,0.721 -0.586,0.637 -0.721,1.323 -0.721,3.719 0,2.396 0.135,3.083 0.721,3.72 0.419,0.452 1.056,0.721 1.759,0.721 1.324,0 2.145,-0.838 2.43,-2.044 l 1.826,0 c -0.402,2.377 -2.094,3.667 -4.256,3.667 z"
       id="path153"
       inkscape:connector-curvature="0"
       style="fill:#325084" /><path
       d="m 408.357,278.447 0,-5.211 -4.843,0 0,5.211 -1.809,0 0,-11.929 1.809,0 0,5.093 4.843,0 0,-5.093 1.809,0 0,11.929 -1.809,0 z"
       id="path155"
       inkscape:connector-curvature="0"
       style="fill:#325084" /></g></svg>