<?xml version="1.0" encoding="UTF-8" standalone="no"?>
<svg
   xmlns:dc="http://purl.org/dc/elements/1.1/"
   xmlns:cc="http://creativecommons.org/ns#"
   xmlns:rdf="http://www.w3.org/1999/02/22-rdf-syntax-ns#"
   xmlns:svg="http://www.w3.org/2000/svg"
   xmlns="http://www.w3.org/2000/svg"
   xmlns:sodipodi="http://sodipodi.sourceforge.net/DTD/sodipodi-0.dtd"
   xmlns:inkscape="http://www.inkscape.org/namespaces/inkscape"
   width="41.838963cm"
   height="23.291071cm"
   viewBox="428 281 831.85702 452.23496"
   version="1.1"
   id="svg472"
   sodipodi:docname="comparison.svg"
   inkscape:version="0.92.2 5c3e80d, 2017-08-06">
  <metadata
     id="metadata478">
    <rdf:RDF>
      <cc:Work
         rdf:about="">
        <dc:format>image/svg+xml</dc:format>
        <dc:type
           rdf:resource="http://purl.org/dc/dcmitype/StillImage" />
        <dc:title></dc:title>
      </cc:Work>
    </rdf:RDF>
  </metadata>
  <defs
     id="defs476" />
  <sodipodi:namedview
     pagecolor="#ffffff"
     bordercolor="#666666"
     borderopacity="1"
     objecttolerance="10"
     gridtolerance="10"
     guidetolerance="10"
     inkscape:pageopacity="0"
     inkscape:pageshadow="2"
     inkscape:window-width="3840"
     inkscape:window-height="2032"
     id="namedview474"
     showgrid="false"
     fit-margin-top="0"
     fit-margin-left="0"
     fit-margin-right="0"
     fit-margin-bottom="0"
     inkscape:zoom="0.26017361"
     inkscape:cx="-77.819337"
     inkscape:cy="437.37204"
     inkscape:window-x="0"
     inkscape:window-y="0"
     inkscape:window-maximized="1"
     inkscape:current-layer="svg472" />
  <g
     id="g18"
     transform="translate(0.007,-5.5882306)">
    <polygon
       style="fill:#ffffff"
       points="1110,282 1110,692 1100,702 900,702 900,292 910,282 "
       id="polygon2" />
    <polygon
       style="fill:none;fill-opacity:0;stroke:#000000;stroke-width:2"
       points="1110,282 1110,692 1100,702 900,702 900,292 910,282 "
       id="polygon4" />
    <line
       style="fill:none;fill-opacity:0;stroke:#000000;stroke-width:2"
       x1="900"
       y1="292"
       x2="1100"
       y2="292"
       id="line6" />
    <line
       style="fill:none;fill-opacity:0;stroke:#000000;stroke-width:2"
       x1="1100"
       y1="292"
       x2="1110"
       y2="282"
       id="line8" />
    <line
       style="fill:none;fill-opacity:0;stroke:#000000;stroke-width:2"
       x1="1100"
       y1="292"
       x2="1100"
       y2="702"
       id="line10" />
    <text
       font-size="12.8"
       style="font-style:normal;font-weight:normal;font-size:12.80000019px;font-family:sans-serif;text-anchor:start;fill:#000000"
       x="910"
       y="313.89999"
       id="text14">
      <tspan
         x="910"
         y="313.89999"
         id="tspan12">Gazebo</tspan>
    </text>
    <line
       style="fill:none;fill-opacity:0;stroke:#000000;stroke-width:1"
       x1="910"
       y1="316.95001"
       x2="958.34998"
       y2="316.95001"
       id="line16" />
  </g>
  <g
     id="g30"
     transform="translate(0.007,-5.5882306)">
    <polyline
       style="fill:none;fill-opacity:0;stroke:#000000;stroke-width:2"
       points="994.574,655 1038,655 1038,650 1121,650 "
       id="polyline20" />
    <path
       style="fill:#ffffff"
       d="m 1137,650 c 0,4 -4,8 -8,8 -4,0 -8,-4 -8,-8 0,-4 4,-8 8,-8 4,0 8,4 8,8 z"
       id="path22"
       inkscape:connector-curvature="0" />
    <path
       style="fill:none;fill-opacity:0;stroke:#000000;stroke-width:2"
       d="m 1137,650 c 0,4 -4,8 -8,8 -4,0 -8,-4 -8,-8 0,-4 4,-8 8,-8 4,0 8,4 8,8"
       id="path24"
       inkscape:connector-curvature="0" />
    <text
       font-size="12.8"
       style="font-style:normal;font-weight:normal;font-size:12.80000019px;font-family:monospace;text-anchor:middle;fill:#000000"
       x="1067.38"
       y="639.96802"
       id="text28">
      <tspan
         x="1067.38"
         y="639.96802"
         id="tspan26" />
    </text>
  </g>
  <g
     id="g40"
     transform="translate(0.007,-5.5882306)">
    <polyline
       style="fill:none;fill-opacity:0;stroke:#000000;stroke-width:2"
       points="1197.43,621 1188,621 1188,650 1154,650 "
       id="polyline32" />
    <path
       style="fill:none;fill-opacity:0;stroke:#000000;stroke-width:2"
       d="m 1146,658 a 8,8 0 1 0 0,-16"
       id="path34"
       inkscape:connector-curvature="0" />
    <text
       font-size="12.8"
       style="font-style:normal;font-weight:normal;font-size:12.80000019px;font-family:monospace;text-anchor:middle;fill:#000000"
       x="1442.91"
       y="666.18597"
       id="text38">
      <tspan
         x="1442.91"
         y="666.18597"
         id="tspan36" />
    </text>
  </g>
  <text
     font-size="12.8"
     style="font-style:normal;font-weight:normal;font-size:12.80000019px;font-family:sans-serif;text-anchor:middle;fill:#000000"
     x="1136.007"
     y="574.31177"
     id="text44">
    <tspan
       x="1136.007"
       y="574.31177"
       id="tspan42">Pozycja</tspan>
  </text>
  <text
     font-size="12.8"
     style="font-style:normal;font-weight:normal;font-size:12.80000019px;font-family:sans-serif;text-anchor:middle;fill:#000000"
     x="1136.007"
     y="666.31177"
     id="text48">
    <tspan
       x="1136.007"
       y="666.31177"
       id="tspan46">Pozycja</tspan>
  </text>
  <g
     id="g60"
     transform="translate(0.007,-5.5882306)">
    <polyline
       style="fill:none;fill-opacity:0;stroke:#000000;stroke-width:2"
       points="1000.65,565 1044,565 1044,556 1121,556 "
       id="polyline50" />
    <path
       style="fill:#ffffff"
       d="m 1137,556 c 0,4 -4,8 -8,8 -4,0 -8,-4 -8,-8 0,-4 4,-8 8,-8 4,0 8,4 8,8 z"
       id="path52"
       inkscape:connector-curvature="0" />
    <path
       style="fill:none;fill-opacity:0;stroke:#000000;stroke-width:2"
       d="m 1137,556 c 0,4 -4,8 -8,8 -4,0 -8,-4 -8,-8 0,-4 4,-8 8,-8 4,0 8,4 8,8"
       id="path54"
       inkscape:connector-curvature="0" />
    <text
       font-size="12.8"
       style="font-style:normal;font-weight:normal;font-size:12.80000019px;font-family:monospace;text-anchor:middle;fill:#000000"
       x="1208.9"
       y="532.15601"
       id="text58">
      <tspan
         x="1208.9"
         y="532.15601"
         id="tspan56" />
    </text>
  </g>
  <g
     id="g70"
     transform="translate(0.007,-5.5882306)">
    <polyline
       style="fill:none;fill-opacity:0;stroke:#000000;stroke-width:2"
       points="1197.43,621 1188,621 1188,556 1154,556 "
       id="polyline62" />
    <path
       style="fill:none;fill-opacity:0;stroke:#000000;stroke-width:2"
       d="m 1146,564 a 8,8 0 1 0 0,-16"
       id="path64"
       inkscape:connector-curvature="0" />
    <text
       font-size="12.8"
       style="font-style:normal;font-weight:normal;font-size:12.80000019px;font-family:monospace;text-anchor:middle;fill:#000000"
       x="1268"
       y="588"
       id="text68">
      <tspan
         x="1268"
         y="588"
         id="tspan66" />
    </text>
  </g>
  <g
     id="g80"
     transform="translate(0.007,-5.5882306)">
    <polyline
       style="fill:none;fill-opacity:0;stroke:#000000;stroke-width:2"
       points="936.992,565 888.496,565 888.496,512 856,512 "
       id="polyline72" />
    <path
       style="fill:none;fill-opacity:0;stroke:#000000;stroke-width:2"
       d="m 848,520 a 8,8 0 1 0 0,-16"
       id="path74"
       inkscape:connector-curvature="0" />
    <text
       font-size="12.8"
       style="font-style:normal;font-weight:normal;font-size:12.80000019px;font-family:monospace;text-anchor:middle;fill:#000000"
       x="999.62402"
       y="525.85999"
       id="text78">
      <tspan
         x="999.62402"
         y="525.85999"
         id="tspan76" />
    </text>
  </g>
  <g
     id="g100"
     transform="translate(0.007,-5.5882306)">
    <rect
       style="fill:#ffffff"
       x="488"
       y="356"
       width="106.15"
       height="70"
       id="rect82" />
    <rect
       style="fill:none;fill-opacity:0;stroke:#000000;stroke-width:2"
       x="488"
       y="356"
       width="106.15"
       height="70"
       id="rect84" />
    <rect
       style="fill:#ffffff"
       x="468"
       y="370"
       width="40"
       height="14"
       id="rect86" />
    <rect
       style="fill:none;fill-opacity:0;stroke:#000000;stroke-width:2"
       x="468"
       y="370"
       width="40"
       height="14"
       id="rect88" />
    <rect
       style="fill:#ffffff"
       x="468"
       y="398"
       width="40"
       height="14"
       id="rect90" />
    <rect
       style="fill:none;fill-opacity:0;stroke:#000000;stroke-width:2"
       x="468"
       y="398"
       width="40"
       height="14"
       id="rect92" />
    <text
       font-size="12.8"
       style="font-style:normal;font-weight:normal;font-size:12.80000019px;font-family:sans-serif;text-anchor:start;fill:#000000"
       x="516"
       y="381.89999"
       id="text98">
      <tspan
         x="516"
         y="381.89999"
         id="tspan94">Generator</tspan>
      <tspan
         x="516"
         y="397.89999"
         id="tspan96">sterowania</tspan>
    </text>
  </g>
  <g
     id="g112"
     transform="translate(0.007,-5.5882306)">
    <polyline
       style="fill:none;fill-opacity:0;stroke:#000000;stroke-width:2"
       points="994.574,655 984,655 984,638 781,638 "
       id="polyline102" />
    <path
       style="fill:#ffffff"
       d="m 765,638 c 0,-4 4,-8 8,-8 4,0 8,4 8,8 0,4 -4,8 -8,8 -4,0 -8,-4 -8,-8 z"
       id="path104"
       inkscape:connector-curvature="0" />
    <path
       style="fill:none;fill-opacity:0;stroke:#000000;stroke-width:2"
       d="m 765,638 c 0,-4 4,-8 8,-8 4,0 8,4 8,8 0,4 -4,8 -8,8 -4,0 -8,-4 -8,-8"
       id="path106"
       inkscape:connector-curvature="0" />
    <text
       font-size="12.8"
       style="font-style:normal;font-weight:normal;font-size:12.80000019px;font-family:monospace;text-anchor:middle;fill:#000000"
       x="948.56"
       y="610.26801"
       id="text110">
      <tspan
         x="948.56"
         y="610.26801"
         id="tspan108" />
    </text>
  </g>
  <g
     id="g122"
     transform="translate(0.007,-5.5882306)">
    <polyline
       style="fill:none;fill-opacity:0;stroke:#000000;stroke-width:2"
       points="735.775,595 736,595 736,638 748,638 "
       id="polyline114" />
    <path
       style="fill:none;fill-opacity:0;stroke:#000000;stroke-width:2"
       d="m 756,630 a 8,8 0 1 0 0,16"
       id="path116"
       inkscape:connector-curvature="0" />
    <text
       font-size="12.8"
       style="font-style:normal;font-weight:normal;font-size:12.80000019px;font-family:monospace;text-anchor:middle;fill:#000000"
       x="776.12598"
       y="491.34799"
       id="text120">
      <tspan
         x="776.12598"
         y="491.34799"
         id="tspan118" />
    </text>
  </g>
  <text
     font-size="12.8"
     style="font-style:normal;font-weight:normal;font-size:12.80000019px;font-family:sans-serif;text-anchor:start;fill:#000000"
     x="730.00702"
     y="654.41174"
     id="text126">
    <tspan
       x="730.00702"
       y="654.41174"
       id="tspan124">Enkodery</tspan>
  </text>
  <g
     id="g138"
     transform="translate(0.007,-5.5882306)">
    <polyline
       style="fill:none;fill-opacity:0;stroke:#000000;stroke-width:2"
       points="735.775,595 766,595 766,512 823,512 "
       id="polyline128" />
    <path
       style="fill:#ffffff"
       d="m 839,512 c 0,4 -4,8 -8,8 -4,0 -8,-4 -8,-8 0,-4 4,-8 8,-8 4,0 8,4 8,8 z"
       id="path130"
       inkscape:connector-curvature="0" />
    <path
       style="fill:none;fill-opacity:0;stroke:#000000;stroke-width:2"
       d="m 839,512 c 0,4 -4,8 -8,8 -4,0 -8,-4 -8,-8 0,-4 4,-8 8,-8 4,0 8,4 8,8"
       id="path132"
       inkscape:connector-curvature="0" />
    <text
       font-size="12.8"
       style="font-style:normal;font-weight:normal;font-size:12.80000019px;font-family:monospace;text-anchor:middle;fill:#000000"
       x="720.70599"
       y="529.93597"
       id="text136">
      <tspan
         x="720.70599"
         y="529.93597"
         id="tspan134" />
    </text>
  </g>
  <text
     font-size="12.8"
     style="font-style:normal;font-weight:normal;font-size:12.80000019px;font-family:sans-serif;text-anchor:middle;fill:#000000"
     x="840.00702"
     y="526.31177"
     id="text144">
    <tspan
       x="840.00702"
       y="526.31177"
       id="tspan140">Prędkości</tspan>
    <tspan
       x="840.00702"
       y="542.31177"
       id="tspan142">kół</tspan>
  </text>
  <g
     id="g156"
     transform="translate(0.007,-5.5882306)">
    <polyline
       style="fill:none;fill-opacity:0;stroke:#000000;stroke-width:2"
       points="595.159,405 633.159,405 633.159,480 553,480 "
       id="polyline146" />
    <path
       style="fill:#ffffff"
       d="m 537,480 c 0,-4 4,-8 8,-8 4,0 8,4 8,8 0,4 -4,8 -8,8 -4,0 -8,-4 -8,-8 z"
       id="path148"
       inkscape:connector-curvature="0" />
    <path
       style="fill:none;fill-opacity:0;stroke:#000000;stroke-width:2"
       d="m 537,480 c 0,-4 4,-8 8,-8 4,0 8,4 8,8 0,4 -4,8 -8,8 -4,0 -8,-4 -8,-8"
       id="path150"
       inkscape:connector-curvature="0" />
    <text
       font-size="12.8"
       style="font-style:normal;font-weight:normal;font-size:12.80000019px;font-family:monospace;text-anchor:middle;fill:#000000"
       x="583.198"
       y="398.15601"
       id="text154">
      <tspan
         x="583.198"
         y="398.15601"
         id="tspan152" />
    </text>
  </g>
  <g
     id="g166"
     transform="translate(0.007,-5.5882306)">
    <polyline
       style="fill:none;fill-opacity:0;stroke:#000000;stroke-width:2"
       points="466.993,561 428.993,561 428.993,480 520,480 "
       id="polyline158" />
    <path
       style="fill:none;fill-opacity:0;stroke:#000000;stroke-width:2"
       d="m 528,472 a 8,8 0 1 0 0,16"
       id="path160"
       inkscape:connector-curvature="0" />
    <text
       font-size="12.8"
       style="font-style:normal;font-weight:normal;font-size:12.80000019px;font-family:monospace;text-anchor:middle;fill:#000000"
       x="512.698"
       y="521.40601"
       id="text164">
      <tspan
         x="512.698"
         y="521.40601"
         id="tspan162" />
    </text>
  </g>
  <g
     id="g186"
     transform="translate(0.007,-5.5882306)">
    <rect
       style="fill:#ffffff"
       x="950"
       y="520"
       width="106.8"
       height="70"
       id="rect168" />
    <rect
       style="fill:none;fill-opacity:0;stroke:#000000;stroke-width:2"
       x="950"
       y="520"
       width="106.8"
       height="70"
       id="rect170" />
    <rect
       style="fill:#ffffff"
       x="930"
       y="534"
       width="40"
       height="14"
       id="rect172" />
    <rect
       style="fill:none;fill-opacity:0;stroke:#000000;stroke-width:2"
       x="930"
       y="534"
       width="40"
       height="14"
       id="rect174" />
    <rect
       style="fill:#ffffff"
       x="930"
       y="562"
       width="40"
       height="14"
       id="rect176" />
    <rect
       style="fill:none;fill-opacity:0;stroke:#000000;stroke-width:2"
       x="930"
       y="562"
       width="40"
       height="14"
       id="rect178" />
    <text
       font-size="12.8"
       style="font-style:normal;font-weight:normal;font-size:12.80000019px;font-family:sans-serif;text-anchor:start;fill:#000000"
       x="978"
       y="545.90002"
       id="text184">
      <tspan
         x="978"
         y="545.90002"
         id="tspan180">Model</tspan>
      <tspan
         x="978"
         y="561.90002"
         id="tspan182">kinematyki</tspan>
    </text>
  </g>
  <g
     id="g206"
     transform="translate(0.007,-5.5882306)">
    <rect
       style="fill:#ffffff"
       x="950"
       y="610"
       width="94.650002"
       height="70"
       id="rect188" />
    <rect
       style="fill:none;fill-opacity:0;stroke:#000000;stroke-width:2"
       x="950"
       y="610"
       width="94.650002"
       height="70"
       id="rect190" />
    <rect
       style="fill:#ffffff"
       x="930"
       y="624"
       width="40"
       height="14"
       id="rect192" />
    <rect
       style="fill:none;fill-opacity:0;stroke:#000000;stroke-width:2"
       x="930"
       y="624"
       width="40"
       height="14"
       id="rect194" />
    <rect
       style="fill:#ffffff"
       x="930"
       y="652"
       width="40"
       height="14"
       id="rect196" />
    <rect
       style="fill:none;fill-opacity:0;stroke:#000000;stroke-width:2"
       x="930"
       y="652"
       width="40"
       height="14"
       id="rect198" />
    <text
       font-size="12.8"
       style="font-style:normal;font-weight:normal;font-size:12.80000019px;font-family:sans-serif;text-anchor:start;fill:#000000"
       x="978"
       y="635.90002"
       id="text204">
      <tspan
         x="978"
         y="635.90002"
         id="tspan200">Model</tspan>
      <tspan
         x="978"
         y="651.90002"
         id="tspan202">dynamiki</tspan>
    </text>
  </g>
  <g
     id="g226"
     transform="translate(0.007,-5.5882306)">
    <rect
       style="fill:#ffffff"
       x="688"
       y="546"
       width="135.55"
       height="70"
       id="rect208" />
    <rect
       style="fill:none;fill-opacity:0;stroke:#000000;stroke-width:2"
       x="688"
       y="546"
       width="135.55"
       height="70"
       id="rect210" />
    <rect
       style="fill:#ffffff"
       x="668"
       y="560"
       width="40"
       height="14"
       id="rect212" />
    <rect
       style="fill:none;fill-opacity:0;stroke:#000000;stroke-width:2"
       x="668"
       y="560"
       width="40"
       height="14"
       id="rect214" />
    <rect
       style="fill:#ffffff"
       x="668"
       y="588"
       width="40"
       height="14"
       id="rect216" />
    <rect
       style="fill:none;fill-opacity:0;stroke:#000000;stroke-width:2"
       x="668"
       y="588"
       width="40"
       height="14"
       id="rect218" />
    <text
       font-size="12.8"
       style="font-style:normal;font-weight:normal;font-size:12.80000019px;font-family:sans-serif;text-anchor:start;fill:#000000"
       x="716"
       y="571.90002"
       id="text224">
      <tspan
         x="716"
         y="571.90002"
         id="tspan220">Wyłuskanie</tspan>
      <tspan
         x="716"
         y="587.90002"
         id="tspan222">podwiadomości</tspan>
    </text>
  </g>
  <text
     font-size="12.8"
     style="font-style:normal;font-weight:normal;font-size:12.80000019px;font-family:sans-serif;text-anchor:middle;fill:#000000"
     x="536.00702"
     y="447.36179"
     id="text232">
    <tspan
       x="536.00702"
       y="447.36179"
       id="tspan228">Zadana prędkość</tspan>
    <tspan
       x="536.00702"
       y="463.36179"
       id="tspan230">liniowa i kątowa</tspan>
  </text>
  <g
     id="g242"
     transform="translate(0.007,-5.5882306)">
    <polyline
       style="fill:none;fill-opacity:0;stroke:#000000;stroke-width:2"
       points="928.993,479 818.497,479 818.497,452 724,452 "
       id="polyline234" />
    <path
       style="fill:none;fill-opacity:0;stroke:#000000;stroke-width:2"
       d="m 716,460 a 8,8 0 1 0 0,-16"
       id="path236"
       inkscape:connector-curvature="0" />
    <text
       font-size="12.8"
       style="font-style:normal;font-weight:normal;font-size:12.80000019px;font-family:monospace;text-anchor:middle;fill:#000000"
       x="945.87402"
       y="429.556"
       id="text240">
      <tspan
         x="945.87402"
         y="429.556"
         id="tspan238" />
    </text>
  </g>
  <g
     id="g252"
     transform="translate(0.007,-5.5882306)">
    <polyline
       style="fill:none;fill-opacity:0;stroke:#000000;stroke-width:2"
       points="928.994,659 842.498,659 842.498,708 772,708 "
       id="polyline244" />
    <path
       style="fill:none;fill-opacity:0;stroke:#000000;stroke-width:2"
       d="m 764,716 a 8,8 0 1 0 0,-16"
       id="path246"
       inkscape:connector-curvature="0" />
    <text
       font-size="12.8"
       style="font-style:normal;font-weight:normal;font-size:12.80000019px;font-family:monospace;text-anchor:middle;fill:#000000"
       x="953.20001"
       y="637.75403"
       id="text250">
      <tspan
         x="953.20001"
         y="637.75403"
         id="tspan248" />
    </text>
  </g>
  <text
     font-size="12.8"
     style="font-style:normal;font-weight:normal;font-size:12.80000019px;font-family:sans-serif;text-anchor:middle;fill:#000000"
     x="708.00702"
     y="470.31177"
     id="text258">
    <tspan
       x="708.00702"
       y="470.31177"
       id="tspan254">Prędkości</tspan>
    <tspan
       x="708.00702"
       y="486.31177"
       id="tspan256">kół</tspan>
  </text>
  <text
     font-size="12.8"
     style="font-style:normal;font-weight:normal;font-size:12.80000019px;font-family:sans-serif;text-anchor:middle;fill:#000000"
     x="756.00702"
     y="722.31177"
     id="text264">
    <tspan
       x="756.00702"
       y="722.31177"
       id="tspan260">Prędkości</tspan>
    <tspan
       x="756.00702"
       y="738.31177"
       id="tspan262">kół</tspan>
  </text>
  <g
     id="g286"
     transform="translate(0.007,-5.5882306)">
    <rect
       style="fill:#ffffff"
       x="488"
       y="652"
       width="110.35"
       height="70"
       id="rect266" />
    <rect
       style="fill:none;fill-opacity:0;stroke:#000000;stroke-width:2"
       x="488"
       y="652"
       width="110.35"
       height="70"
       id="rect268" />
    <rect
       style="fill:#ffffff"
       x="468"
       y="666"
       width="40"
       height="14"
       id="rect270" />
    <rect
       style="fill:none;fill-opacity:0;stroke:#000000;stroke-width:2"
       x="468"
       y="666"
       width="40"
       height="14"
       id="rect272" />
    <rect
       style="fill:#ffffff"
       x="468"
       y="694"
       width="40"
       height="14"
       id="rect274" />
    <rect
       style="fill:none;fill-opacity:0;stroke:#000000;stroke-width:2"
       x="468"
       y="694"
       width="40"
       height="14"
       id="rect276" />
    <text
       font-size="12.8"
       style="font-style:normal;font-weight:normal;font-size:12.80000019px;font-family:sans-serif;text-anchor:start;fill:#000000"
       x="516"
       y="677.90002"
       id="text284">
      <tspan
         x="516"
         y="677.90002"
         id="tspan278">Rozdzielacz</tspan>
      <tspan
         x="516"
         y="693.90002"
         id="tspan280">sterowania</tspan>
      <tspan
         x="516"
         y="709.90002"
         id="tspan282" />
    </text>
  </g>
  <g
     id="g298"
     transform="translate(0.007,-5.5882306)">
    <polyline
       style="fill:none;fill-opacity:0;stroke:#000000;stroke-width:2"
       points="983.4,479 1032,479 1032,466 1121,466 "
       id="polyline288" />
    <path
       style="fill:#ffffff"
       d="m 1137,466 c 0,4 -4,8 -8,8 -4,0 -8,-4 -8,-8 0,-4 4,-8 8,-8 4,0 8,4 8,8 z"
       id="path290"
       inkscape:connector-curvature="0" />
    <path
       style="fill:none;fill-opacity:0;stroke:#000000;stroke-width:2"
       d="m 1137,466 c 0,4 -4,8 -8,8 -4,0 -8,-4 -8,-8 0,-4 4,-8 8,-8 4,0 8,4 8,8"
       id="path292"
       inkscape:connector-curvature="0" />
    <text
       font-size="12.8"
       style="font-style:normal;font-weight:normal;font-size:12.80000019px;font-family:monospace;text-anchor:middle;fill:#000000"
       x="1039.41"
       y="429.46799"
       id="text296">
      <tspan
         x="1039.41"
         y="429.46799"
         id="tspan294" />
    </text>
  </g>
  <g
     id="g318"
     transform="translate(0.007,-5.5882306)">
    <rect
       style="fill:#ffffff"
       x="950"
       y="430"
       width="106.8"
       height="70"
       id="rect300" />
    <rect
       style="fill:none;fill-opacity:0;stroke:#000000;stroke-width:2"
       x="950"
       y="430"
       width="106.8"
       height="70"
       id="rect302" />
    <rect
       style="fill:#ffffff"
       x="930"
       y="444"
       width="40"
       height="14"
       id="rect304" />
    <rect
       style="fill:none;fill-opacity:0;stroke:#000000;stroke-width:2"
       x="930"
       y="444"
       width="40"
       height="14"
       id="rect306" />
    <rect
       style="fill:#ffffff"
       x="930"
       y="472"
       width="40"
       height="14"
       id="rect308" />
    <rect
       style="fill:none;fill-opacity:0;stroke:#000000;stroke-width:2"
       x="930"
       y="472"
       width="40"
       height="14"
       id="rect310" />
    <text
       font-size="12.8"
       style="font-style:normal;font-weight:normal;font-size:12.80000019px;font-family:sans-serif;text-anchor:start;fill:#000000"
       x="978"
       y="455.89999"
       id="text316">
      <tspan
         x="978"
         y="455.89999"
         id="tspan312">Model</tspan>
      <tspan
         x="978"
         y="471.89999"
         id="tspan314">kinematyki</tspan>
    </text>
  </g>
  <g
     id="g328"
     transform="translate(0.007,-5.5882306)">
    <polyline
       style="fill:none;fill-opacity:0;stroke:#000000;stroke-width:2"
       points="1197.43,621 1196,621 1196,466 1154,466 "
       id="polyline320" />
    <path
       style="fill:none;fill-opacity:0;stroke:#000000;stroke-width:2"
       d="m 1146,474 a 8,8 0 1 0 0,-16"
       id="path322"
       inkscape:connector-curvature="0" />
    <text
       font-size="12.8"
       style="font-style:normal;font-weight:normal;font-size:12.80000019px;font-family:monospace;text-anchor:middle;fill:#000000"
       x="1284"
       y="564"
       id="text326">
      <tspan
         x="1284"
         y="564"
         id="tspan324" />
    </text>
  </g>
  <text
     font-size="12.8"
     style="font-style:normal;font-weight:normal;font-size:12.80000019px;font-family:sans-serif;text-anchor:middle;fill:#000000"
     x="1140.007"
     y="482.31177"
     id="text332">
    <tspan
       x="1140.007"
       y="482.31177"
       id="tspan330">Pozycja</tspan>
  </text>
  <g
     id="g344"
     transform="translate(0.007,-5.5882306)">
    <polyline
       style="fill:none;fill-opacity:0;stroke:#000000;stroke-width:2"
       points="544,560 624,560 624,615 552.09,615 "
       id="polyline334" />
    <path
       style="fill:#ffffff"
       d="m 536.09,615 c 0,-4 4,-8 8,-8 4,0 8,4 8,8 0,4 -4,8 -8,8 -4,0 -8,-4 -8,-8 z"
       id="path336"
       inkscape:connector-curvature="0" />
    <path
       style="fill:none;fill-opacity:0;stroke:#000000;stroke-width:2"
       d="m 536.09,615 c 0,-4 4,-8 8,-8 4,0 8,4 8,8 0,4 -4,8 -8,8 -4,0 -8,-4 -8,-8"
       id="path338"
       inkscape:connector-curvature="0" />
    <text
       font-size="12.8"
       style="font-style:normal;font-weight:normal;font-size:12.80000019px;font-family:monospace;text-anchor:middle;fill:#000000"
       x="546.43597"
       y="541.45599"
       id="text342">
      <tspan
         x="546.43597"
         y="541.45599"
         id="tspan340" />
    </text>
  </g>
  <g
     id="g354"
     transform="translate(0.007,-5.5882306)">
    <polyline
       style="fill:none;fill-opacity:0;stroke:#000000;stroke-width:2"
       points="466.993,701 428.993,701 428.993,615 519.09,615 "
       id="polyline346" />
    <path
       style="fill:none;fill-opacity:0;stroke:#000000;stroke-width:2"
       d="m 527.09,607 a 8,8 0 1 0 0,16"
       id="path348"
       inkscape:connector-curvature="0" />
    <text
       font-size="12.8"
       style="font-style:normal;font-weight:normal;font-size:12.80000019px;font-family:monospace;text-anchor:middle;fill:#000000"
       x="535.18799"
       y="650.68799"
       id="text352">
      <tspan
         x="535.18799"
         y="650.68799"
         id="tspan350" />
    </text>
  </g>
  <text
     font-size="12.8"
     style="font-style:normal;font-weight:normal;font-size:12.80000019px;font-family:sans-serif;text-anchor:middle;fill:#000000"
     x="536.00702"
     y="626.31177"
     id="text360">
    <tspan
       x="536.00702"
       y="626.31177"
       id="tspan356">Prędkości</tspan>
    <tspan
       x="536.00702"
       y="642.31177"
       id="tspan358">kół</tspan>
  </text>
  <g
     id="g380"
     transform="translate(0.007,-5.5882306)">
    <rect
       style="fill:#ffffff"
       x="488"
       y="512"
       width="111.9"
       height="70"
       id="rect362" />
    <rect
       style="fill:none;fill-opacity:0;stroke:#000000;stroke-width:2"
       x="488"
       y="512"
       width="111.9"
       height="70"
       id="rect364" />
    <rect
       style="fill:#ffffff"
       x="468"
       y="526"
       width="40"
       height="14"
       id="rect366" />
    <rect
       style="fill:none;fill-opacity:0;stroke:#000000;stroke-width:2"
       x="468"
       y="526"
       width="40"
       height="14"
       id="rect368" />
    <rect
       style="fill:#ffffff"
       x="468"
       y="554"
       width="40"
       height="14"
       id="rect370" />
    <rect
       style="fill:none;fill-opacity:0;stroke:#000000;stroke-width:2"
       x="468"
       y="554"
       width="40"
       height="14"
       id="rect372" />
    <text
       font-size="12.8"
       style="font-style:normal;font-weight:normal;font-size:12.80000019px;font-family:sans-serif;text-anchor:start;fill:#000000"
       x="516"
       y="537.90002"
       id="text378">
      <tspan
         x="516"
         y="537.90002"
         id="tspan374">Kinematyka</tspan>
      <tspan
         x="516"
         y="553.90002"
         id="tspan376">odwrotna</tspan>
    </text>
  </g>
  <g
     id="g392"
     transform="translate(0.007,-5.5882306)">
    <polyline
       style="fill:none;fill-opacity:0;stroke:#000000;stroke-width:2"
       points="599.359,701 677.68,701 677.68,708 739,708 "
       id="polyline382" />
    <path
       style="fill:#ffffff"
       d="m 755,708 c 0,4 -4,8 -8,8 -4,0 -8,-4 -8,-8 0,-4 4,-8 8,-8 4,0 8,4 8,8 z"
       id="path384"
       inkscape:connector-curvature="0" />
    <path
       style="fill:none;fill-opacity:0;stroke:#000000;stroke-width:2"
       d="m 755,708 c 0,4 -4,8 -8,8 -4,0 -8,-4 -8,-8 0,-4 4,-8 8,-8 4,0 8,4 8,8"
       id="path386"
       inkscape:connector-curvature="0" />
    <text
       font-size="12.8"
       style="font-style:normal;font-weight:normal;font-size:12.80000019px;font-family:monospace;text-anchor:middle;fill:#000000"
       x="502.56201"
       y="677.62"
       id="text390">
      <tspan
         x="502.56201"
         y="677.62"
         id="tspan388" />
    </text>
  </g>
  <g
     id="g404"
     transform="translate(0.007,-5.5882306)">
    <polyline
       style="fill:none;fill-opacity:0;stroke:#000000;stroke-width:2"
       points="599.359,701 653.68,701 653.68,452 691,452 "
       id="polyline394" />
    <path
       style="fill:#ffffff"
       d="m 707,452 c 0,4 -4,8 -8,8 -4,0 -8,-4 -8,-8 0,-4 4,-8 8,-8 4,0 8,4 8,8 z"
       id="path396"
       inkscape:connector-curvature="0" />
    <path
       style="fill:none;fill-opacity:0;stroke:#000000;stroke-width:2"
       d="m 707,452 c 0,4 -4,8 -8,8 -4,0 -8,-4 -8,-8 0,-4 4,-8 8,-8 4,0 8,4 8,8"
       id="path398"
       inkscape:connector-curvature="0" />
    <text
       font-size="12.8"
       style="font-style:normal;font-weight:normal;font-size:12.80000019px;font-family:monospace;text-anchor:middle;fill:#000000"
       x="503.526"
       y="642.62799"
       id="text402">
      <tspan
         x="503.526"
         y="642.62799"
         id="tspan400" />
    </text>
  </g>
  <g
     id="g416"
     transform="translate(0.007,-5.5882306)">
    <polyline
       style="fill:none;fill-opacity:0;stroke:#000000;stroke-width:2"
       points="983.225,389 1048,389 1048,372 1121,372 "
       id="polyline406" />
    <path
       style="fill:#ffffff"
       d="m 1137,372 c 0,4 -4,8 -8,8 -4,0 -8,-4 -8,-8 0,-4 4,-8 8,-8 4,0 8,4 8,8 z"
       id="path408"
       inkscape:connector-curvature="0" />
    <path
       style="fill:none;fill-opacity:0;stroke:#000000;stroke-width:2"
       d="m 1137,372 c 0,4 -4,8 -8,8 -4,0 -8,-4 -8,-8 0,-4 4,-8 8,-8 4,0 8,4 8,8"
       id="path410"
       inkscape:connector-curvature="0" />
    <text
       font-size="12.8"
       style="font-style:normal;font-weight:normal;font-size:12.80000019px;font-family:monospace;text-anchor:middle;fill:#000000"
       x="1017.42"
       y="358.53601"
       id="text414">
      <tspan
         x="1017.42"
         y="358.53601"
         id="tspan412" />
    </text>
  </g>
  <g
     id="g434"
     transform="translate(0.007,-5.5882306)">
    <rect
       style="fill:#ffffff"
       x="948"
       y="340"
       width="110.45"
       height="70"
       id="rect418" />
    <rect
       style="fill:none;fill-opacity:0;stroke:#000000;stroke-width:2"
       x="948"
       y="340"
       width="110.45"
       height="70"
       id="rect420" />
    <rect
       style="fill:#ffffff"
       x="928"
       y="354"
       width="40"
       height="14"
       id="rect422" />
    <rect
       style="fill:none;fill-opacity:0;stroke:#000000;stroke-width:2"
       x="928"
       y="354"
       width="40"
       height="14"
       id="rect424" />
    <rect
       style="fill:#ffffff"
       x="928"
       y="382"
       width="40"
       height="14"
       id="rect426" />
    <rect
       style="fill:none;fill-opacity:0;stroke:#000000;stroke-width:2"
       x="928"
       y="382"
       width="40"
       height="14"
       id="rect428" />
    <text
       font-size="12.8"
       style="font-style:normal;font-weight:normal;font-size:12.80000019px;font-family:sans-serif;text-anchor:start;fill:#000000"
       x="976"
       y="365.89999"
       id="text432">
      <tspan
         x="976"
         y="365.89999"
         id="tspan430">Obserwator</tspan>
    </text>
  </g>
  <g
     id="g444"
     transform="translate(0.007,-5.5882306)">
    <polyline
       style="fill:none;fill-opacity:0;stroke:#000000;stroke-width:2"
       points="1197.43,621 1212,621 1212,372 1154,372 "
       id="polyline436" />
    <path
       style="fill:none;fill-opacity:0;stroke:#000000;stroke-width:2"
       d="m 1146,380 a 8,8 0 1 0 0,-16"
       id="path438"
       inkscape:connector-curvature="0" />
    <text
       font-size="12.8"
       style="font-style:normal;font-weight:normal;font-size:12.80000019px;font-family:monospace;text-anchor:middle;fill:#000000"
       x="1280"
       y="568"
       id="text442">
      <tspan
         x="1280"
         y="568"
         id="tspan440" />
    </text>
  </g>
  <g
     id="g464"
     transform="translate(0.007,-5.5882306)">
    <rect
       style="fill:#ffffff"
       x="1176"
       y="572"
       width="82.849998"
       height="70"
       id="rect446" />
    <rect
       style="fill:none;fill-opacity:0;stroke:#000000;stroke-width:2"
       x="1176"
       y="572"
       width="82.849998"
       height="70"
       id="rect448" />
    <rect
       style="fill:#ffffff"
       x="1156"
       y="586"
       width="40"
       height="14"
       id="rect450" />
    <rect
       style="fill:none;fill-opacity:0;stroke:#000000;stroke-width:2"
       x="1156"
       y="586"
       width="40"
       height="14"
       id="rect452" />
    <rect
       style="fill:#ffffff"
       x="1156"
       y="614"
       width="40"
       height="14"
       id="rect454" />
    <rect
       style="fill:none;fill-opacity:0;stroke:#000000;stroke-width:2"
       x="1156"
       y="614"
       width="40"
       height="14"
       id="rect456" />
    <text
       font-size="12.8"
       style="font-style:normal;font-weight:normal;font-size:12.80000019px;font-family:sans-serif;text-anchor:start;fill:#000000"
       x="1204"
       y="597.90002"
       id="text462">
      <tspan
         x="1204"
         y="597.90002"
         id="tspan458">Zapis</tspan>
      <tspan
         x="1204"
         y="613.90002"
         id="tspan460">danych</tspan>
    </text>
  </g>
  <text
     font-size="12.7998"
     style="font-style:normal;font-weight:normal;font-size:12.79979992px;font-family:sans-serif;text-anchor:middle;fill:#000000"
     x="1140.007"
     y="390.41177"
     id="text470">
    <tspan
       x="1140.007"
       y="390.41177"
       id="tspan466">Różnice</tspan>
    <tspan
       x="1140.007"
       y="406.41177"
       id="tspan468">pozycji</tspan>
  </text>
</svg>
