<?xml version="1.0" encoding="UTF-8" standalone="no"?>
<!DOCTYPE svg PUBLIC "-//W3C//DTD SVG 1.0//EN" "http://www.w3.org/TR/2001/PR-SVG-20010719/DTD/svg10.dtd">
<svg width="55cm" height="16cm" viewBox="360 469 1082 302" xmlns="http://www.w3.org/2000/svg" xmlns:xlink="http://www.w3.org/1999/xlink">
  <g>
    <polygon style="fill: #ffffff" points="920,480 930,470 1114,470 1114,702 1104,712 920,712 920,480 "/>
    <polygon style="fill: none; fill-opacity:0; stroke-width: 2; stroke: #000000" points="920,480 930,470 1114,470 1114,702 1104,712 920,712 920,480 "/>
    <line style="fill: none; fill-opacity:0; stroke-width: 2; stroke: #000000" x1="920" y1="480" x2="1104" y2="480"/>
    <line style="fill: none; fill-opacity:0; stroke-width: 2; stroke: #000000" x1="1104" y1="480" x2="1114" y2="470"/>
    <line style="fill: none; fill-opacity:0; stroke-width: 2; stroke: #000000" x1="1104" y1="480" x2="1104" y2="712"/>
    <text font-size="12.8" style="fill: #000000;text-anchor:start;font-family:sans-serif;font-style:normal;font-weight:normal" x="930" y="501.9">
      <tspan x="930" y="501.9">Gazebo</tspan>
    </text>
    <line style="fill: none; fill-opacity:0; stroke-width: 1; stroke: #000000" x1="930" y1="504.95" x2="978.35" y2="504.95"/>
  </g>
  <g>
    <polyline style="fill: none; fill-opacity:0; stroke-width: 2; stroke: #000000" points="994.575,655 1038,655 1038,660 1171,660 "/>
    <path style="fill: #ffffff" d="M 1187 660 C 1187,664 1183,668 1179,668 C 1175,668 1171,664 1171,660 C 1171,656 1175,652 1179,652 C 1183,652 1187,656 1187,660z"/>
    <path style="fill: none; fill-opacity:0; stroke-width: 2; stroke: #000000" d="M 1187 660 C 1187,664 1183,668 1179,668 C 1175,668 1171,664 1171,660 C 1171,656 1175,652 1179,652 C 1183,652 1187,656 1187,660"/>
    <text font-size="12.8" style="fill: #000000;text-anchor:middle;font-family:monospace;font-style:normal;font-weight:normal" x="1067.38" y="639.968">
      <tspan x="1067.38" y="639.968"></tspan>
    </text>
  </g>
  <g>
    <polyline style="fill: none; fill-opacity:0; stroke-width: 2; stroke: #000000" points="1325.1,635 1304,635 1304,660 1204,660 "/>
    <path style="fill: none; fill-opacity:0; stroke-width: 2; stroke: #000000" d="M 1196,668 A 8,8 0 1 0 1196,652"/>
    <text font-size="12.8" style="fill: #000000;text-anchor:middle;font-family:monospace;font-style:normal;font-weight:normal" x="1442.91" y="666.186">
      <tspan x="1442.91" y="666.186"></tspan>
    </text>
  </g>
  <text font-size="12.8" style="fill: #000000;text-anchor:middle;font-family:sans-serif;font-style:normal;font-weight:normal" x="1178" y="589.9">
    <tspan x="1178" y="589.9">Pozycja</tspan>
  </text>
  <text font-size="12.8" style="fill: #000000;text-anchor:middle;font-family:sans-serif;font-style:normal;font-weight:normal" x="1178" y="679.9">
    <tspan x="1178" y="679.9">Pozycja</tspan>
  </text>
  <g>
    <polyline style="fill: none; fill-opacity:0; stroke-width: 2; stroke: #000000" points="1000.65,565 1064,565 1064,570 1171,570 "/>
    <path style="fill: #ffffff" d="M 1187 570 C 1187,574 1183,578 1179,578 C 1175,578 1171,574 1171,570 C 1171,566 1175,562 1179,562 C 1183,562 1187,566 1187,570z"/>
    <path style="fill: none; fill-opacity:0; stroke-width: 2; stroke: #000000" d="M 1187 570 C 1187,574 1183,578 1179,578 C 1175,578 1171,574 1171,570 C 1171,566 1175,562 1179,562 C 1183,562 1187,566 1187,570"/>
    <text font-size="12.8" style="fill: #000000;text-anchor:middle;font-family:monospace;font-style:normal;font-weight:normal" x="1208.9" y="532.156">
      <tspan x="1208.9" y="532.156"></tspan>
    </text>
  </g>
  <g>
    <rect style="fill: #ffffff" x="958" y="516" width="125.3" height="70"/>
    <rect style="fill: none; fill-opacity:0; stroke-width: 2; stroke: #000000" x="958" y="516" width="125.3" height="70"/>
    <rect style="fill: #ffffff" x="938" y="530" width="40" height="14"/>
    <rect style="fill: none; fill-opacity:0; stroke-width: 2; stroke: #000000" x="938" y="530" width="40" height="14"/>
    <rect style="fill: #ffffff" x="938" y="558" width="40" height="14"/>
    <rect style="fill: none; fill-opacity:0; stroke-width: 2; stroke: #000000" x="938" y="558" width="40" height="14"/>
    <text font-size="12.8" style="fill: #000000;text-anchor:start;font-family:sans-serif;font-style:normal;font-weight:normal" x="986" y="541.9">
      <tspan x="986" y="541.9">Model</tspan>
      <tspan x="986" y="557.9">kinematyczny</tspan>
    </text>
  </g>
  <g>
    <polyline style="fill: none; fill-opacity:0; stroke-width: 2; stroke: #000000" points="1325.1,635 1304,635 1304,570 1204,570 "/>
    <path style="fill: none; fill-opacity:0; stroke-width: 2; stroke: #000000" d="M 1196,578 A 8,8 0 1 0 1196,562"/>
    <text font-size="12.8" style="fill: #000000;text-anchor:middle;font-family:monospace;font-style:normal;font-weight:normal" x="1276.63" y="589.618">
      <tspan x="1276.63" y="589.618"></tspan>
    </text>
  </g>
  <g>
    <polyline style="fill: none; fill-opacity:0; stroke-width: 2; stroke: #000000" points="532.909,679 676.455,679 676.455,730 803,730 "/>
    <path style="fill: #ffffff" d="M 819 730 C 819,734 815,738 811,738 C 807,738 803,734 803,730 C 803,726 807,722 811,722 C 815,722 819,726 819,730z"/>
    <path style="fill: none; fill-opacity:0; stroke-width: 2; stroke: #000000" d="M 819 730 C 819,734 815,738 811,738 C 807,738 803,734 803,730 C 803,726 807,722 811,722 C 815,722 819,726 819,730"/>
    <text font-size="12.8" style="fill: #000000;text-anchor:middle;font-family:monospace;font-style:normal;font-weight:normal" x="714.62" y="631.138">
      <tspan x="714.62" y="631.138"></tspan>
    </text>
  </g>
  <text font-size="12.8" style="fill: #000000;text-anchor:middle;font-family:sans-serif;font-style:normal;font-weight:normal" x="820" y="751.9">
    <tspan x="820" y="751.9">Prędkości </tspan>
    <tspan x="820" y="767.9">kół</tspan>
  </text>
  <g>
    <polyline style="fill: none; fill-opacity:0; stroke-width: 2; stroke: #000000" points="936.992,565 888.496,565 888.496,512 856,512 "/>
    <path style="fill: none; fill-opacity:0; stroke-width: 2; stroke: #000000" d="M 848,520 A 8,8 0 1 0 848,504"/>
    <text font-size="12.8" style="fill: #000000;text-anchor:middle;font-family:monospace;font-style:normal;font-weight:normal" x="999.624" y="525.86">
      <tspan x="999.624" y="525.86"></tspan>
    </text>
  </g>
  <g>
    <polyline style="fill: none; fill-opacity:0; stroke-width: 2; stroke: #000000" points="936.992,655 878.496,655 878.496,730 836,730 "/>
    <path style="fill: none; fill-opacity:0; stroke-width: 2; stroke: #000000" d="M 828,738 A 8,8 0 1 0 828,722"/>
    <text font-size="12.8" style="fill: #000000;text-anchor:middle;font-family:monospace;font-style:normal;font-weight:normal" x="1007.06" y="617.128">
      <tspan x="1007.06" y="617.128"></tspan>
    </text>
  </g>
  <g>
    <rect style="fill: #ffffff" x="1278" y="578" width="82.85" height="70"/>
    <rect style="fill: none; fill-opacity:0; stroke-width: 2; stroke: #000000" x="1278" y="578" width="82.85" height="70"/>
    <rect style="fill: #ffffff" x="1258" y="592" width="40" height="14"/>
    <rect style="fill: none; fill-opacity:0; stroke-width: 2; stroke: #000000" x="1258" y="592" width="40" height="14"/>
    <rect style="fill: #ffffff" x="1258" y="620" width="40" height="14"/>
    <rect style="fill: none; fill-opacity:0; stroke-width: 2; stroke: #000000" x="1258" y="620" width="40" height="14"/>
    <text font-size="12.8" style="fill: #000000;text-anchor:start;font-family:sans-serif;font-style:normal;font-weight:normal" x="1306" y="603.9">
      <tspan x="1306" y="603.9">Zapis</tspan>
      <tspan x="1306" y="619.9">danych</tspan>
    </text>
  </g>
  <g>
    <rect style="fill: #ffffff" x="420" y="630" width="111.9" height="70"/>
    <rect style="fill: none; fill-opacity:0; stroke-width: 2; stroke: #000000" x="420" y="630" width="111.9" height="70"/>
    <rect style="fill: #ffffff" x="400" y="644" width="40" height="14"/>
    <rect style="fill: none; fill-opacity:0; stroke-width: 2; stroke: #000000" x="400" y="644" width="40" height="14"/>
    <rect style="fill: #ffffff" x="400" y="672" width="40" height="14"/>
    <rect style="fill: none; fill-opacity:0; stroke-width: 2; stroke: #000000" x="400" y="672" width="40" height="14"/>
    <text font-size="12.8" style="fill: #000000;text-anchor:start;font-family:sans-serif;font-style:normal;font-weight:normal" x="448" y="655.9">
      <tspan x="448" y="655.9">Kinematyka</tspan>
      <tspan x="448" y="671.9">odwrotna</tspan>
    </text>
  </g>
  <g>
    <rect style="fill: #ffffff" x="410" y="470" width="106.15" height="70"/>
    <rect style="fill: none; fill-opacity:0; stroke-width: 2; stroke: #000000" x="410" y="470" width="106.15" height="70"/>
    <rect style="fill: #ffffff" x="390" y="484" width="40" height="14"/>
    <rect style="fill: none; fill-opacity:0; stroke-width: 2; stroke: #000000" x="390" y="484" width="40" height="14"/>
    <rect style="fill: #ffffff" x="390" y="512" width="40" height="14"/>
    <rect style="fill: none; fill-opacity:0; stroke-width: 2; stroke: #000000" x="390" y="512" width="40" height="14"/>
    <text font-size="12.8" style="fill: #000000;text-anchor:start;font-family:sans-serif;font-style:normal;font-weight:normal" x="438" y="495.9">
      <tspan x="438" y="495.9">Generator</tspan>
      <tspan x="438" y="511.9">sterowania</tspan>
    </text>
  </g>
  <text font-size="12.8" style="fill: #000000;text-anchor:middle;font-family:sans-serif;font-style:normal;font-weight:normal" x="460" y="561.9">
    <tspan x="460" y="561.9">Prędkość i</tspan>
    <tspan x="460" y="577.9">rotacja bazy</tspan>
  </text>
  <g>
    <polyline style="fill: none; fill-opacity:0; stroke-width: 2; stroke: #000000" points="994.575,655 984,655 984,638 781,638 "/>
    <path style="fill: #ffffff" d="M 765 638 C 765,634 769,630 773,630 C 777,630 781,634 781,638 C 781,642 777,646 773,646 C 769,646 765,642 765,638z"/>
    <path style="fill: none; fill-opacity:0; stroke-width: 2; stroke: #000000" d="M 765 638 C 765,634 769,630 773,630 C 777,630 781,634 781,638 C 781,642 777,646 773,646 C 769,646 765,642 765,638"/>
    <text font-size="12.8" style="fill: #000000;text-anchor:middle;font-family:monospace;font-style:normal;font-weight:normal" x="948.56" y="610.268">
      <tspan x="948.56" y="610.268"></tspan>
    </text>
  </g>
  <g>
    <polyline style="fill: none; fill-opacity:0; stroke-width: 2; stroke: #000000" points="668.726,571.006 668.726,638 748,638 "/>
    <path style="fill: none; fill-opacity:0; stroke-width: 2; stroke: #000000" d="M 756,630 A 8,8 0 1 0 756,646"/>
    <text font-size="12.8" style="fill: #000000;text-anchor:middle;font-family:monospace;font-style:normal;font-weight:normal" x="776.126" y="491.348">
      <tspan x="776.126" y="491.348"></tspan>
    </text>
  </g>
  <text font-size="12.8" style="fill: #000000;text-anchor:start;font-family:sans-serif;font-style:normal;font-weight:normal" x="730" y="660">
    <tspan x="730" y="660">Enkodery</tspan>
  </text>
  <g>
    <polyline style="fill: none; fill-opacity:0; stroke-width: 2; stroke: #000000" points="668.725,549 732,549 732,512 823,512 "/>
    <path style="fill: #ffffff" d="M 839 512 C 839,516 835,520 831,520 C 827,520 823,516 823,512 C 823,508 827,504 831,504 C 835,504 839,508 839,512z"/>
    <path style="fill: none; fill-opacity:0; stroke-width: 2; stroke: #000000" d="M 839 512 C 839,516 835,520 831,520 C 827,520 823,516 823,512 C 823,508 827,504 831,504 C 835,504 839,508 839,512"/>
    <text font-size="12.8" style="fill: #000000;text-anchor:middle;font-family:monospace;font-style:normal;font-weight:normal" x="720.706" y="529.936">
      <tspan x="720.706" y="529.936"></tspan>
    </text>
  </g>
  <text font-size="12.8" style="fill: #000000;text-anchor:middle;font-family:sans-serif;font-style:normal;font-weight:normal" x="840" y="531.9">
    <tspan x="840" y="531.9">Prędkości </tspan>
    <tspan x="840" y="547.9">kół</tspan>
  </text>
  <g>
    <rect style="fill: #ffffff" x="958" y="606" width="113.15" height="70"/>
    <rect style="fill: none; fill-opacity:0; stroke-width: 2; stroke: #000000" x="958" y="606" width="113.15" height="70"/>
    <rect style="fill: #ffffff" x="938" y="620" width="40" height="14"/>
    <rect style="fill: none; fill-opacity:0; stroke-width: 2; stroke: #000000" x="938" y="620" width="40" height="14"/>
    <rect style="fill: #ffffff" x="938" y="648" width="40" height="14"/>
    <rect style="fill: none; fill-opacity:0; stroke-width: 2; stroke: #000000" x="938" y="648" width="40" height="14"/>
    <text font-size="12.8" style="fill: #000000;text-anchor:start;font-family:sans-serif;font-style:normal;font-weight:normal" x="986" y="631.9">
      <tspan x="986" y="631.9">Model </tspan>
      <tspan x="986" y="647.9">dynamiczny</tspan>
    </text>
  </g>
  <g>
    <rect style="fill: #ffffff" x="630" y="500" width="117.45" height="70"/>
    <rect style="fill: none; fill-opacity:0; stroke-width: 2; stroke: #000000" x="630" y="500" width="117.45" height="70"/>
    <rect style="fill: #ffffff" x="610" y="514" width="40" height="14"/>
    <rect style="fill: none; fill-opacity:0; stroke-width: 2; stroke: #000000" x="610" y="514" width="40" height="14"/>
    <rect style="fill: #ffffff" x="610" y="542" width="40" height="14"/>
    <rect style="fill: none; fill-opacity:0; stroke-width: 2; stroke: #000000" x="610" y="542" width="40" height="14"/>
    <text font-size="12.8" style="fill: #000000;text-anchor:start;font-family:sans-serif;font-style:normal;font-weight:normal" x="658" y="525.9">
      <tspan x="658" y="525.9">Wyłuskiwacz</tspan>
      <tspan x="658" y="541.9">prędkości</tspan>
      <tspan x="658" y="557.9">kół</tspan>
    </text>
  </g>
  <g>
    <polyline style="fill: none; fill-opacity:0; stroke-width: 2; stroke: #000000" points="517.159,519 555.159,519 555.159,596 473,596 "/>
    <path style="fill: #ffffff" d="M 457 596 C 457,592 461,588 465,588 C 469,588 473,592 473,596 C 473,600 469,604 465,604 C 461,604 457,600 457,596z"/>
    <path style="fill: none; fill-opacity:0; stroke-width: 2; stroke: #000000" d="M 457 596 C 457,592 461,588 465,588 C 469,588 473,592 473,596 C 473,600 469,604 465,604 C 461,604 457,600 457,596"/>
    <text font-size="12.8" style="fill: #000000;text-anchor:middle;font-family:monospace;font-style:normal;font-weight:normal" x="503.198" y="514.156">
      <tspan x="503.198" y="514.156"></tspan>
    </text>
  </g>
  <g>
    <polyline style="fill: none; fill-opacity:0; stroke-width: 2; stroke: #000000" points="398.993,679 360.993,679 360.993,596 440,596 "/>
    <path style="fill: none; fill-opacity:0; stroke-width: 2; stroke: #000000" d="M 448,588 A 8,8 0 1 0 448,604"/>
    <text font-size="12.8" style="fill: #000000;text-anchor:middle;font-family:monospace;font-style:normal;font-weight:normal" x="432.698" y="637.406">
      <tspan x="432.698" y="637.406"></tspan>
    </text>
  </g>
</svg>
