<?xml version="1.0" encoding="UTF-8" standalone="no"?>
<svg
   xmlns:dc="http://purl.org/dc/elements/1.1/"
   xmlns:cc="http://creativecommons.org/ns#"
   xmlns:rdf="http://www.w3.org/1999/02/22-rdf-syntax-ns#"
   xmlns:svg="http://www.w3.org/2000/svg"
   xmlns="http://www.w3.org/2000/svg"
   xmlns:sodipodi="http://sodipodi.sourceforge.net/DTD/sodipodi-0.dtd"
   xmlns:inkscape="http://www.inkscape.org/namespaces/inkscape"
   width="44.733498cm"
   height="13.856557cm"
   viewBox="467 373 891.01823 263.27458"
   version="1.1"
   id="svg304"
   sodipodi:docname="gramofon.svg"
   inkscape:version="0.92.2 5c3e80d, 2017-08-06">
  <metadata
     id="metadata310">
    <rdf:RDF>
      <cc:Work
         rdf:about="">
        <dc:format>image/svg+xml</dc:format>
        <dc:type
           rdf:resource="http://purl.org/dc/dcmitype/StillImage" />
        <dc:title></dc:title>
      </cc:Work>
    </rdf:RDF>
  </metadata>
  <defs
     id="defs308" />
  <sodipodi:namedview
     pagecolor="#ffffff"
     bordercolor="#666666"
     borderopacity="1"
     objecttolerance="10"
     gridtolerance="10"
     guidetolerance="10"
     inkscape:pageopacity="0"
     inkscape:pageshadow="2"
     inkscape:window-width="3840"
     inkscape:window-height="2032"
     id="namedview306"
     showgrid="false"
     fit-margin-top="0"
     fit-margin-left="0"
     fit-margin-right="0"
     fit-margin-bottom="0"
     inkscape:zoom="1.6921979"
     inkscape:cx="737.7673"
     inkscape:cy="145.96261"
     inkscape:window-x="0"
     inkscape:window-y="0"
     inkscape:window-maximized="1"
     inkscape:current-layer="svg304" />
  <g
     id="g18"
     transform="translate(-3.8317267,-70.36271)">
    <polygon
       style="fill:#ffffff"
       points="920,480 930,470 1114,470 1114,702 1104,712 920,712 "
       id="polygon2" />
    <polygon
       style="fill:none;fill-opacity:0;stroke:#000000;stroke-width:2"
       points="920,480 930,470 1114,470 1114,702 1104,712 920,712 "
       id="polygon4" />
    <line
       style="fill:none;fill-opacity:0;stroke:#000000;stroke-width:2"
       x1="920"
       y1="480"
       x2="1104"
       y2="480"
       id="line6" />
    <line
       style="fill:none;fill-opacity:0;stroke:#000000;stroke-width:2"
       x1="1104"
       y1="480"
       x2="1114"
       y2="470"
       id="line8" />
    <line
       style="fill:none;fill-opacity:0;stroke:#000000;stroke-width:2"
       x1="1104"
       y1="480"
       x2="1104"
       y2="712"
       id="line10" />
    <text
       font-size="12.7998"
       style="font-style:normal;font-weight:normal;font-size:12.79979992px;font-family:sans-serif;text-anchor:start;fill:#000000"
       x="930"
       y="501.89999"
       id="text14">
      <tspan
         x="930"
         y="501.89999"
         id="tspan12">Gazebo</tspan>
    </text>
    <line
       style="fill:none;fill-opacity:0;stroke:#000000;stroke-width:1"
       x1="930"
       y1="504.95001"
       x2="978.34998"
       y2="504.95001"
       id="line16" />
  </g>
  <g
     id="g30"
     transform="translate(-3.8317267,-70.36271)">
    <polyline
       style="fill:none;fill-opacity:0;stroke:#000000;stroke-width:2"
       points="994.575,655 1038,655 1038,660 1171,660 "
       id="polyline20" />
    <path
       style="fill:#ffffff"
       d="m 1187,660 c 0,4 -4,8 -8,8 -4,0 -8,-4 -8,-8 0,-4 4,-8 8,-8 4,0 8,4 8,8 z"
       id="path22"
       inkscape:connector-curvature="0" />
    <path
       style="fill:none;fill-opacity:0;stroke:#000000;stroke-width:2"
       d="m 1187,660 c 0,4 -4,8 -8,8 -4,0 -8,-4 -8,-8 0,-4 4,-8 8,-8 4,0 8,4 8,8"
       id="path24"
       inkscape:connector-curvature="0" />
    <text
       font-size="12.7998"
       style="font-style:normal;font-weight:normal;font-size:12.79979992px;font-family:monospace;text-anchor:middle;fill:#000000"
       x="1067.38"
       y="639.96802"
       id="text28">
      <tspan
         x="1067.38"
         y="639.96802"
         id="tspan26" />
    </text>
  </g>
  <g
     id="g40"
     transform="translate(-3.8317267,-70.36271)">
    <polyline
       style="fill:none;fill-opacity:0;stroke:#000000;stroke-width:2"
       points="1325.1,635 1304,635 1304,660 1204,660 "
       id="polyline32" />
    <path
       style="fill:none;fill-opacity:0;stroke:#000000;stroke-width:2"
       d="m 1196,668 a 8,8 0 1 0 0,-16"
       id="path34"
       inkscape:connector-curvature="0" />
    <text
       font-size="12.7998"
       style="font-style:normal;font-weight:normal;font-size:12.79979992px;font-family:monospace;text-anchor:middle;fill:#000000"
       x="1442.91"
       y="666.18597"
       id="text38">
      <tspan
         x="1442.91"
         y="666.18597"
         id="tspan36" />
    </text>
  </g>
  <text
     font-size="12.7998"
     style="font-style:normal;font-weight:normal;font-size:12.79979992px;font-family:sans-serif;text-anchor:middle;fill:#000000"
     x="1174.1683"
     y="519.53729"
     id="text44">
    <tspan
       x="1174.1683"
       y="519.53729"
       id="tspan42">Pozycja</tspan>
  </text>
  <text
     font-size="12.7998"
     style="font-style:normal;font-weight:normal;font-size:12.79979992px;font-family:sans-serif;text-anchor:middle;fill:#000000"
     x="1174.1683"
     y="609.53729"
     id="text48">
    <tspan
       x="1174.1683"
       y="609.53729"
       id="tspan46">Pozycja</tspan>
  </text>
  <g
     id="g60"
     transform="translate(-3.8317267,-70.36271)">
    <polyline
       style="fill:none;fill-opacity:0;stroke:#000000;stroke-width:2"
       points="1000.65,565 1064,565 1064,570 1171,570 "
       id="polyline50" />
    <path
       style="fill:#ffffff"
       d="m 1187,570 c 0,4 -4,8 -8,8 -4,0 -8,-4 -8,-8 0,-4 4,-8 8,-8 4,0 8,4 8,8 z"
       id="path52"
       inkscape:connector-curvature="0" />
    <path
       style="fill:none;fill-opacity:0;stroke:#000000;stroke-width:2"
       d="m 1187,570 c 0,4 -4,8 -8,8 -4,0 -8,-4 -8,-8 0,-4 4,-8 8,-8 4,0 8,4 8,8"
       id="path54"
       inkscape:connector-curvature="0" />
    <text
       font-size="12.7998"
       style="font-style:normal;font-weight:normal;font-size:12.79979992px;font-family:monospace;text-anchor:middle;fill:#000000"
       x="1208.9"
       y="532.15601"
       id="text58">
      <tspan
         x="1208.9"
         y="532.15601"
         id="tspan56" />
    </text>
  </g>
  <g
     id="g80"
     transform="translate(-3.8317267,-70.36271)">
    <rect
       style="fill:#ffffff"
       x="958"
       y="516"
       width="125.3"
       height="70"
       id="rect62" />
    <rect
       style="fill:none;fill-opacity:0;stroke:#000000;stroke-width:2"
       x="958"
       y="516"
       width="125.3"
       height="70"
       id="rect64" />
    <rect
       style="fill:#ffffff"
       x="938"
       y="530"
       width="40"
       height="14"
       id="rect66" />
    <rect
       style="fill:none;fill-opacity:0;stroke:#000000;stroke-width:2"
       x="938"
       y="530"
       width="40"
       height="14"
       id="rect68" />
    <rect
       style="fill:#ffffff"
       x="938"
       y="558"
       width="40"
       height="14"
       id="rect70" />
    <rect
       style="fill:none;fill-opacity:0;stroke:#000000;stroke-width:2"
       x="938"
       y="558"
       width="40"
       height="14"
       id="rect72" />
    <text
       font-size="12.7998"
       style="font-style:normal;font-weight:normal;font-size:12.79979992px;font-family:sans-serif;text-anchor:start;fill:#000000"
       x="986"
       y="541.90002"
       id="text78">
      <tspan
         x="986"
         y="541.90002"
         id="tspan74">Model</tspan>
      <tspan
         x="986"
         y="557.90002"
         id="tspan76">kinematyczny</tspan>
    </text>
  </g>
  <g
     id="g100"
     transform="translate(-3.8317267,-70.36271)">
    <rect
       style="fill:#ffffff"
       x="958"
       y="606"
       width="113.15"
       height="70"
       id="rect82" />
    <rect
       style="fill:none;fill-opacity:0;stroke:#000000;stroke-width:2"
       x="958"
       y="606"
       width="113.15"
       height="70"
       id="rect84" />
    <rect
       style="fill:#ffffff"
       x="938"
       y="620"
       width="40"
       height="14"
       id="rect86" />
    <rect
       style="fill:none;fill-opacity:0;stroke:#000000;stroke-width:2"
       x="938"
       y="620"
       width="40"
       height="14"
       id="rect88" />
    <rect
       style="fill:#ffffff"
       x="938"
       y="648"
       width="40"
       height="14"
       id="rect90" />
    <rect
       style="fill:none;fill-opacity:0;stroke:#000000;stroke-width:2"
       x="938"
       y="648"
       width="40"
       height="14"
       id="rect92" />
    <text
       font-size="12.7998"
       style="font-style:normal;font-weight:normal;font-size:12.79979992px;font-family:sans-serif;text-anchor:start;fill:#000000"
       x="986"
       y="631.90002"
       id="text98">
      <tspan
         x="986"
         y="631.90002"
         id="tspan94">Model</tspan>
      <tspan
         x="986"
         y="647.90002"
         id="tspan96">dynamiczny</tspan>
    </text>
  </g>
  <g
     id="g110"
     transform="translate(-3.8317267,-70.36271)">
    <polyline
       style="fill:none;fill-opacity:0;stroke:#000000;stroke-width:2"
       points="1325.1,635 1304,635 1304,570 1204,570 "
       id="polyline102" />
    <path
       style="fill:none;fill-opacity:0;stroke:#000000;stroke-width:2"
       d="m 1196,578 a 8,8 0 1 0 0,-16"
       id="path104"
       inkscape:connector-curvature="0" />
    <text
       font-size="12.7998"
       style="font-style:normal;font-weight:normal;font-size:12.79979992px;font-family:monospace;text-anchor:middle;fill:#000000"
       x="1276.63"
       y="589.61902"
       id="text108">
      <tspan
         x="1276.63"
         y="589.61902"
         id="tspan106" />
    </text>
  </g>
  <g
     id="g130"
     transform="translate(-3.8317267,-70.36271)">
    <rect
       style="fill:#ffffff"
       x="620"
       y="604"
       width="110.35"
       height="70"
       id="rect112" />
    <rect
       style="fill:none;fill-opacity:0;stroke:#000000;stroke-width:2"
       x="620"
       y="604"
       width="110.35"
       height="70"
       id="rect114" />
    <rect
       style="fill:#ffffff"
       x="600"
       y="618"
       width="40"
       height="14"
       id="rect116" />
    <rect
       style="fill:none;fill-opacity:0;stroke:#000000;stroke-width:2"
       x="600"
       y="618"
       width="40"
       height="14"
       id="rect118" />
    <rect
       style="fill:#ffffff"
       x="600"
       y="646"
       width="40"
       height="14"
       id="rect120" />
    <rect
       style="fill:none;fill-opacity:0;stroke:#000000;stroke-width:2"
       x="600"
       y="646"
       width="40"
       height="14"
       id="rect122" />
    <text
       font-size="12.7998"
       style="font-style:normal;font-weight:normal;font-size:12.79979992px;font-family:sans-serif;text-anchor:start;fill:#000000"
       x="648"
       y="629.90002"
       id="text128">
      <tspan
         x="648"
         y="629.90002"
         id="tspan124">Rozdzielacz</tspan>
      <tspan
         x="648"
         y="645.90002"
         id="tspan126">wejścia</tspan>
    </text>
  </g>
  <g
     id="g142"
     transform="translate(-3.8317267,-70.36271)">
    <polyline
       style="fill:none;fill-opacity:0;stroke:#000000;stroke-width:2"
       points="731.359,653 779.68,653 779.68,616 811,616 "
       id="polyline132" />
    <path
       style="fill:#ffffff"
       d="m 827,616 c 0,4 -4,8 -8,8 -4,0 -8,-4 -8,-8 0,-4 4,-8 8,-8 4,0 8,4 8,8 z"
       id="path134"
       inkscape:connector-curvature="0" />
    <path
       style="fill:none;fill-opacity:0;stroke:#000000;stroke-width:2"
       d="m 827,616 c 0,4 -4,8 -8,8 -4,0 -8,-4 -8,-8 0,-4 4,-8 8,-8 4,0 8,4 8,8"
       id="path136"
       inkscape:connector-curvature="0" />
    <text
       font-size="12.7998"
       style="font-style:normal;font-weight:normal;font-size:12.79979992px;font-family:monospace;text-anchor:middle;fill:#000000"
       x="707.68103"
       y="619.18597"
       id="text140">
      <tspan
         x="707.68103"
         y="619.18597"
         id="tspan138" />
    </text>
  </g>
  <g
     id="g154"
     transform="translate(-3.8317267,-70.36271)">
    <polyline
       style="fill:none;fill-opacity:0;stroke:#000000;stroke-width:2"
       points="731.359,653 779.68,653 779.68,676 811,676 "
       id="polyline144" />
    <path
       style="fill:#ffffff"
       d="m 827,676 c 0,4 -4,8 -8,8 -4,0 -8,-4 -8,-8 0,-4 4,-8 8,-8 4,0 8,4 8,8 z"
       id="path146"
       inkscape:connector-curvature="0" />
    <path
       style="fill:none;fill-opacity:0;stroke:#000000;stroke-width:2"
       d="m 827,676 c 0,4 -4,8 -8,8 -4,0 -8,-4 -8,-8 0,-4 4,-8 8,-8 4,0 8,4 8,8"
       id="path148"
       inkscape:connector-curvature="0" />
    <text
       font-size="12.7998"
       style="font-style:normal;font-weight:normal;font-size:12.79979992px;font-family:monospace;text-anchor:middle;fill:#000000"
       x="714.62097"
       y="631.13702"
       id="text152">
      <tspan
         x="714.62097"
         y="631.13702"
         id="tspan150" />
    </text>
  </g>
  <text
     font-size="12.7998"
     style="font-style:normal;font-weight:normal;font-size:12.79979992px;font-family:sans-serif;text-anchor:middle;fill:#000000"
     x="814.16827"
     y="625.53729"
     id="text160">
    <tspan
       x="814.16827"
       y="625.53729"
       id="tspan156">Prędkości</tspan>
    <tspan
       x="814.16827"
       y="641.53729"
       id="tspan158">kół</tspan>
  </text>
  <text
     font-size="12.7998"
     style="font-style:normal;font-weight:normal;font-size:12.79979992px;font-family:sans-serif;text-anchor:middle;fill:#000000"
     x="814.16827"
     y="565.91125"
     id="text166">
    <tspan
       x="814.16827"
       y="565.91125"
       id="tspan162">Prędkości</tspan>
    <tspan
       x="814.16827"
       y="581.91125"
       id="tspan164">kół</tspan>
  </text>
  <g
     id="g176"
     transform="translate(-3.8317267,-70.36271)">
    <polyline
       style="fill:none;fill-opacity:0;stroke:#000000;stroke-width:2"
       points="936.992,565 882.496,565 882.496,616 844,616 "
       id="polyline168" />
    <path
       style="fill:none;fill-opacity:0;stroke:#000000;stroke-width:2"
       d="m 836,624 a 8,8 0 1 0 0,-16"
       id="path170"
       inkscape:connector-curvature="0" />
    <text
       font-size="12.7998"
       style="font-style:normal;font-weight:normal;font-size:12.79979992px;font-family:monospace;text-anchor:middle;fill:#000000"
       x="999.62402"
       y="525.85901"
       id="text174">
      <tspan
         x="999.62402"
         y="525.85901"
         id="tspan172" />
    </text>
  </g>
  <g
     id="g186"
     transform="translate(-3.8317267,-70.36271)">
    <polyline
       style="fill:none;fill-opacity:0;stroke:#000000;stroke-width:2"
       points="936.993,655 882.496,655 882.496,676 844,676 "
       id="polyline178" />
    <path
       style="fill:none;fill-opacity:0;stroke:#000000;stroke-width:2"
       d="m 836,684 a 8,8 0 1 0 0,-16"
       id="path180"
       inkscape:connector-curvature="0" />
    <text
       font-size="12.7998"
       style="font-style:normal;font-weight:normal;font-size:12.79979992px;font-family:monospace;text-anchor:middle;fill:#000000"
       x="1007.06"
       y="617.12799"
       id="text184">
      <tspan
         x="1007.06"
         y="617.12799"
         id="tspan182" />
    </text>
  </g>
  <g
     id="g206"
     transform="translate(-3.8317267,-70.36271)">
    <rect
       style="fill:#ffffff"
       x="1278"
       y="578"
       width="82.849998"
       height="70"
       id="rect188" />
    <rect
       style="fill:none;fill-opacity:0;stroke:#000000;stroke-width:2"
       x="1278"
       y="578"
       width="82.849998"
       height="70"
       id="rect190" />
    <rect
       style="fill:#ffffff"
       x="1258"
       y="592"
       width="40"
       height="14"
       id="rect192" />
    <rect
       style="fill:none;fill-opacity:0;stroke:#000000;stroke-width:2"
       x="1258"
       y="592"
       width="40"
       height="14"
       id="rect194" />
    <rect
       style="fill:#ffffff"
       x="1258"
       y="620"
       width="40"
       height="14"
       id="rect196" />
    <rect
       style="fill:none;fill-opacity:0;stroke:#000000;stroke-width:2"
       x="1258"
       y="620"
       width="40"
       height="14"
       id="rect198" />
    <text
       font-size="12.7998"
       style="font-style:normal;font-weight:normal;font-size:12.79979992px;font-family:sans-serif;text-anchor:start;fill:#000000"
       x="1306"
       y="603.90002"
       id="text204">
      <tspan
         x="1306"
         y="603.90002"
         id="tspan200">Zapis</tspan>
      <tspan
         x="1306"
         y="619.90002"
         id="tspan202">danych</tspan>
    </text>
  </g>
  <g
     id="g216"
     transform="translate(-3.8317267,-70.36271)">
    <polyline
       style="fill:none;fill-opacity:0;stroke:#000000;stroke-width:2"
       points="598.993,653 541.007,653 541.007,631 "
       id="polyline208" />
    <path
       style="fill:none;fill-opacity:0;stroke:#000000;stroke-width:2"
       d="m 533.007,622.994 a 8.0000022,8.0000022 0 1 0 16,0.012"
       id="path210"
       inkscape:connector-curvature="0" />
    <text
       font-size="12.7998"
       style="font-style:normal;font-weight:normal;font-size:12.79979992px;font-family:monospace;text-anchor:middle;fill:#000000"
       x="636.61902"
       y="635.96997"
       id="text214">
      <tspan
         x="636.61902"
         y="635.96997"
         id="tspan212" />
    </text>
  </g>
  <g
     id="g236"
     transform="translate(-3.8317267,-70.36271)">
    <rect
       style="fill:#ffffff"
       x="620"
       y="520"
       width="111.9"
       height="70"
       id="rect218" />
    <rect
       style="fill:none;fill-opacity:0;stroke:#000000;stroke-width:2"
       x="620"
       y="520"
       width="111.9"
       height="70"
       id="rect220" />
    <rect
       style="fill:#ffffff"
       x="600"
       y="534"
       width="40"
       height="14"
       id="rect222" />
    <rect
       style="fill:none;fill-opacity:0;stroke:#000000;stroke-width:2"
       x="600"
       y="534"
       width="40"
       height="14"
       id="rect224" />
    <rect
       style="fill:#ffffff"
       x="600"
       y="562"
       width="40"
       height="14"
       id="rect226" />
    <rect
       style="fill:none;fill-opacity:0;stroke:#000000;stroke-width:2"
       x="600"
       y="562"
       width="40"
       height="14"
       id="rect228" />
    <text
       font-size="12.7998"
       style="font-style:normal;font-weight:normal;font-size:12.79979992px;font-family:sans-serif;text-anchor:start;fill:#000000"
       x="648"
       y="545.90002"
       id="text234">
      <tspan
         x="648"
         y="545.90002"
         id="tspan230">Kinematyka</tspan>
      <tspan
         x="648"
         y="561.90002"
         id="tspan232">odwrotna</tspan>
    </text>
  </g>
  <g
     id="g248"
     transform="translate(-3.8317267,-70.36271)">
    <polyline
       style="fill:none;fill-opacity:0;stroke:#000000;stroke-width:2"
       points="598.993,569 541.007,569 541.007,598 "
       id="polyline238" />
    <path
       style="fill:#ffffff"
       d="m 541.007,614 c -4,0 -8,-4 -8,-8 0,-4 4,-8 8,-8 4,0 8,4 8,8 0,4 -4,8 -8,8 z"
       id="path240"
       inkscape:connector-curvature="0" />
    <path
       style="fill:none;fill-opacity:0;stroke:#000000;stroke-width:2"
       d="m 541.007,614 c -4,0 -8,-4 -8,-8 0,-4 4,-8 8,-8 4,0 8,4 8,8 0,4 -4,8 -8,8"
       id="path242"
       inkscape:connector-curvature="0" />
    <text
       font-size="12.7998"
       style="font-style:normal;font-weight:normal;font-size:12.79979992px;font-family:monospace;text-anchor:middle;fill:#000000"
       x="622.18701"
       y="533.70099"
       id="text246">
      <tspan
         x="622.18701"
         y="533.70099"
         id="tspan244" />
    </text>
  </g>
  <text
     font-size="12.7998"
     style="font-style:normal;font-weight:normal;font-size:12.79979992px;font-family:sans-serif;text-anchor:middle;fill:#000000"
     x="496.1683"
     y="538.06226"
     id="text254">
    <tspan
       x="496.1683"
       y="538.06226"
       id="tspan250">Prędkości</tspan>
    <tspan
       x="496.1683"
       y="554.06226"
       id="tspan252">kół</tspan>
  </text>
  <g
     id="g274"
     transform="translate(-3.8317267,-70.36271)">
    <rect
       style="fill:#ffffff"
       x="620"
       y="438"
       width="106.15"
       height="70"
       id="rect256" />
    <rect
       style="fill:none;fill-opacity:0;stroke:#000000;stroke-width:2"
       x="620"
       y="438"
       width="106.15"
       height="70"
       id="rect258" />
    <rect
       style="fill:#ffffff"
       x="600"
       y="452"
       width="40"
       height="14"
       id="rect260" />
    <rect
       style="fill:none;fill-opacity:0;stroke:#000000;stroke-width:2"
       x="600"
       y="452"
       width="40"
       height="14"
       id="rect262" />
    <rect
       style="fill:#ffffff"
       x="600"
       y="480"
       width="40"
       height="14"
       id="rect264" />
    <rect
       style="fill:none;fill-opacity:0;stroke:#000000;stroke-width:2"
       x="600"
       y="480"
       width="40"
       height="14"
       id="rect266" />
    <text
       font-size="12.7998"
       style="font-style:normal;font-weight:normal;font-size:12.79979992px;font-family:sans-serif;text-anchor:start;fill:#000000"
       x="648"
       y="463.89999"
       id="text272">
      <tspan
         x="648"
         y="463.89999"
         id="tspan268">Generator</tspan>
      <tspan
         x="648"
         y="479.89999"
         id="tspan270">sterowania</tspan>
    </text>
  </g>
  <g
     id="g286"
     transform="translate(-3.8317267,-70.36271)">
    <polyline
       style="fill:none;fill-opacity:0;stroke:#000000;stroke-width:2"
       points="732.909,569 780,569 780,547 "
       id="polyline276" />
    <path
       style="fill:#ffffff"
       d="m 780,531 c 4,0 8,4 8,8 0,4 -4,8 -8,8 -4,0 -8,-4 -8,-8 0,-4 4,-8 8,-8 z"
       id="path278"
       inkscape:connector-curvature="0" />
    <path
       style="fill:none;fill-opacity:0;stroke:#000000;stroke-width:2"
       d="m 780,531 c 4,0 8,4 8,8 0,4 -4,8 -8,8 -4,0 -8,-4 -8,-8 0,-4 4,-8 8,-8"
       id="path280"
       inkscape:connector-curvature="0" />
    <text
       font-size="12.7998"
       style="font-style:normal;font-weight:normal;font-size:12.79979992px;font-family:monospace;text-anchor:middle;fill:#000000"
       x="646.00702"
       y="487.86899"
       id="text284">
      <tspan
         x="646.00702"
         y="487.86899"
         id="tspan282" />
    </text>
  </g>
  <g
     id="g296"
     transform="translate(-3.8317267,-70.36271)">
    <polyline
       style="fill:none;fill-opacity:0;stroke:#000000;stroke-width:2"
       points="727.159,487 780,487 780,514 "
       id="polyline288" />
    <path
       style="fill:none;fill-opacity:0;stroke:#000000;stroke-width:2"
       d="m 788,521.994 a 8.0000022,8.0000022 0 1 0 -16,0.012"
       id="path290"
       inkscape:connector-curvature="0" />
    <text
       font-size="12.7998"
       style="font-style:normal;font-weight:normal;font-size:12.79979992px;font-family:monospace;text-anchor:middle;fill:#000000"
       x="708.93799"
       y="384.98801"
       id="text294">
      <tspan
         x="708.93799"
         y="384.98801"
         id="tspan292" />
    </text>
  </g>
  <text
     font-size="12.7998"
     style="font-style:normal;font-weight:normal;font-size:12.79979992px;font-family:sans-serif;text-anchor:middle;fill:#000000"
     x="828.16827"
     y="457.53732"
     id="text302">
    <tspan
       x="828.16827"
       y="457.53732"
       id="tspan298">Prędkość i</tspan>
    <tspan
       x="828.16827"
       y="473.53732"
       id="tspan300">rotacja bazy</tspan>
  </text>
</svg>
