<?xml version="1.0" encoding="UTF-8" standalone="no"?>
<!DOCTYPE svg PUBLIC "-//W3C//DTD SVG 1.0//EN" "http://www.w3.org/TR/2001/PR-SVG-20010719/DTD/svg10.dtd">
<svg width="49cm" height="14cm" viewBox="467 436 976 278" xmlns="http://www.w3.org/2000/svg" xmlns:xlink="http://www.w3.org/1999/xlink">
  <g>
    <g>
      <polygon style="fill: #ffffff" points="920,480 930,470 1114,470 1114,702 1104,712 920,712 920,480 "/>
      <polygon style="fill: none; fill-opacity:0; stroke-width: 0.02; stroke: #ffffff" points="920,480 930,470 1114,470 1114,702 1104,712 920,712 920,480 "/>
    </g>
    <polygon style="fill: none; fill-opacity:0; stroke-width: 2; stroke: #000000" points="920,480 930,470 1114,470 1114,702 1104,712 920,712 920,480 "/>
    <line style="fill: none; fill-opacity:0; stroke-width: 2; stroke: #000000" x1="920" y1="480" x2="1104" y2="480"/>
    <line style="fill: none; fill-opacity:0; stroke-width: 2; stroke: #000000" x1="1104" y1="480" x2="1114" y2="470"/>
    <line style="fill: none; fill-opacity:0; stroke-width: 2; stroke: #000000" x1="1104" y1="480" x2="1104" y2="712"/>
    <text font-size="12.7998" style="fill: #000000;text-anchor:start;font-family:sans-serif;font-style:normal;font-weight:normal" x="930" y="501.9">
      <tspan x="930" y="501.9">Gazebo</tspan>
    </text>
    <line style="fill: none; fill-opacity:0; stroke-width: 1; stroke: #000000" x1="930" y1="504.95" x2="978.35" y2="504.95"/>
  </g>
  <g>
    <polyline style="fill: none; fill-opacity:0; stroke-width: 2; stroke: #000000" points="994.575,655 1038,655 1038,660 1171,660 "/>
    <g>
      <path style="fill: #ffffff" d="M 1187 660 C 1187,664 1183,668 1179,668 C 1175,668 1171,664 1171,660 C 1171,656 1175,652 1179,652 C 1183,652 1187,656 1187,660z"/>
      <path style="fill: none; fill-opacity:0; stroke-width: 0.02; stroke: #ffffff" d="M 1187 660 C 1187,664 1183,668 1179,668 C 1175,668 1171,664 1171,660 C 1171,656 1175,652 1179,652 C 1183,652 1187,656 1187,660"/>
    </g>
    <path style="fill: none; fill-opacity:0; stroke-width: 2; stroke: #000000" d="M 1187 660 C 1187,664 1183,668 1179,668 C 1175,668 1171,664 1171,660 C 1171,656 1175,652 1179,652 C 1183,652 1187,656 1187,660"/>
    <text font-size="12.7998" style="fill: #000000;text-anchor:middle;font-family:monospace;font-style:normal;font-weight:normal" x="1067.38" y="639.968">
      <tspan x="1067.38" y="639.968"></tspan>
    </text>
  </g>
  <g>
    <polyline style="fill: none; fill-opacity:0; stroke-width: 2; stroke: #000000" points="1325.1,635 1304,635 1304,660 1204,660 "/>
    <path style="fill: none; fill-opacity:0; stroke-width: 2; stroke: #000000" d="M 1196 668 C 1200.42,668 1204,664.418 1204,660 C 1204,655.582 1200.42,652 1196,652"/>
    <text font-size="12.7998" style="fill: #000000;text-anchor:middle;font-family:monospace;font-style:normal;font-weight:normal" x="1442.91" y="666.186">
      <tspan x="1442.91" y="666.186"></tspan>
    </text>
  </g>
  <text font-size="12.7998" style="fill: #000000;text-anchor:middle;font-family:sans-serif;font-style:normal;font-weight:normal" x="1178" y="589.9">
    <tspan x="1178" y="589.9">Pozycja</tspan>
  </text>
  <text font-size="12.7998" style="fill: #000000;text-anchor:middle;font-family:sans-serif;font-style:normal;font-weight:normal" x="1178" y="679.9">
    <tspan x="1178" y="679.9">Pozycja</tspan>
  </text>
  <g>
    <polyline style="fill: none; fill-opacity:0; stroke-width: 2; stroke: #000000" points="1000.65,565 1064,565 1064,570 1171,570 "/>
    <g>
      <path style="fill: #ffffff" d="M 1187 570 C 1187,574 1183,578 1179,578 C 1175,578 1171,574 1171,570 C 1171,566 1175,562 1179,562 C 1183,562 1187,566 1187,570z"/>
      <path style="fill: none; fill-opacity:0; stroke-width: 0.02; stroke: #ffffff" d="M 1187 570 C 1187,574 1183,578 1179,578 C 1175,578 1171,574 1171,570 C 1171,566 1175,562 1179,562 C 1183,562 1187,566 1187,570"/>
    </g>
    <path style="fill: none; fill-opacity:0; stroke-width: 2; stroke: #000000" d="M 1187 570 C 1187,574 1183,578 1179,578 C 1175,578 1171,574 1171,570 C 1171,566 1175,562 1179,562 C 1183,562 1187,566 1187,570"/>
    <text font-size="12.7998" style="fill: #000000;text-anchor:middle;font-family:monospace;font-style:normal;font-weight:normal" x="1208.9" y="532.156">
      <tspan x="1208.9" y="532.156"></tspan>
    </text>
  </g>
  <g>
    <g>
      <rect style="fill: #ffffff" x="958" y="516" width="125.3" height="70"/>
      <rect style="fill: none; fill-opacity:0; stroke-width: 0.02; stroke: #ffffff" x="958" y="516" width="125.3" height="70"/>
    </g>
    <rect style="fill: none; fill-opacity:0; stroke-width: 2; stroke: #000000" x="958" y="516" width="125.3" height="70"/>
    <g>
      <rect style="fill: #ffffff" x="938" y="530" width="40" height="14"/>
      <rect style="fill: none; fill-opacity:0; stroke-width: 0.02; stroke: #ffffff" x="938" y="530" width="40" height="14"/>
    </g>
    <rect style="fill: none; fill-opacity:0; stroke-width: 2; stroke: #000000" x="938" y="530" width="40" height="14"/>
    <g>
      <rect style="fill: #ffffff" x="938" y="558" width="40" height="14"/>
      <rect style="fill: none; fill-opacity:0; stroke-width: 0.02; stroke: #ffffff" x="938" y="558" width="40" height="14"/>
    </g>
    <rect style="fill: none; fill-opacity:0; stroke-width: 2; stroke: #000000" x="938" y="558" width="40" height="14"/>
    <text font-size="12.7998" style="fill: #000000;text-anchor:start;font-family:sans-serif;font-style:normal;font-weight:normal" x="986" y="541.9">
      <tspan x="986" y="541.9">Model</tspan>
      <tspan x="986" y="557.9">kinematyczny</tspan>
    </text>
  </g>
  <g>
    <g>
      <rect style="fill: #ffffff" x="958" y="606" width="113.15" height="70"/>
      <rect style="fill: none; fill-opacity:0; stroke-width: 0.02; stroke: #ffffff" x="958" y="606" width="113.15" height="70"/>
    </g>
    <rect style="fill: none; fill-opacity:0; stroke-width: 2; stroke: #000000" x="958" y="606" width="113.15" height="70"/>
    <g>
      <rect style="fill: #ffffff" x="938" y="620" width="40" height="14"/>
      <rect style="fill: none; fill-opacity:0; stroke-width: 0.02; stroke: #ffffff" x="938" y="620" width="40" height="14"/>
    </g>
    <rect style="fill: none; fill-opacity:0; stroke-width: 2; stroke: #000000" x="938" y="620" width="40" height="14"/>
    <g>
      <rect style="fill: #ffffff" x="938" y="648" width="40" height="14"/>
      <rect style="fill: none; fill-opacity:0; stroke-width: 0.02; stroke: #ffffff" x="938" y="648" width="40" height="14"/>
    </g>
    <rect style="fill: none; fill-opacity:0; stroke-width: 2; stroke: #000000" x="938" y="648" width="40" height="14"/>
    <text font-size="12.7998" style="fill: #000000;text-anchor:start;font-family:sans-serif;font-style:normal;font-weight:normal" x="986" y="631.9">
      <tspan x="986" y="631.9">Model </tspan>
      <tspan x="986" y="647.9">dynamiczny</tspan>
    </text>
  </g>
  <g>
    <polyline style="fill: none; fill-opacity:0; stroke-width: 2; stroke: #000000" points="1325.1,635 1304,635 1304,570 1204,570 "/>
    <path style="fill: none; fill-opacity:0; stroke-width: 2; stroke: #000000" d="M 1196 578 C 1200.42,578 1204,574.418 1204,570 C 1204,565.582 1200.42,562 1196,562"/>
    <text font-size="12.7998" style="fill: #000000;text-anchor:middle;font-family:monospace;font-style:normal;font-weight:normal" x="1276.63" y="589.619">
      <tspan x="1276.63" y="589.619"></tspan>
    </text>
  </g>
  <g>
    <g>
      <rect style="fill: #ffffff" x="620" y="604" width="110.35" height="70"/>
      <rect style="fill: none; fill-opacity:0; stroke-width: 0.02; stroke: #ffffff" x="620" y="604" width="110.35" height="70"/>
    </g>
    <rect style="fill: none; fill-opacity:0; stroke-width: 2; stroke: #000000" x="620" y="604" width="110.35" height="70"/>
    <g>
      <rect style="fill: #ffffff" x="600" y="618" width="40" height="14"/>
      <rect style="fill: none; fill-opacity:0; stroke-width: 0.02; stroke: #ffffff" x="600" y="618" width="40" height="14"/>
    </g>
    <rect style="fill: none; fill-opacity:0; stroke-width: 2; stroke: #000000" x="600" y="618" width="40" height="14"/>
    <g>
      <rect style="fill: #ffffff" x="600" y="646" width="40" height="14"/>
      <rect style="fill: none; fill-opacity:0; stroke-width: 0.02; stroke: #ffffff" x="600" y="646" width="40" height="14"/>
    </g>
    <rect style="fill: none; fill-opacity:0; stroke-width: 2; stroke: #000000" x="600" y="646" width="40" height="14"/>
    <text font-size="12.7998" style="fill: #000000;text-anchor:start;font-family:sans-serif;font-style:normal;font-weight:normal" x="648" y="629.9">
      <tspan x="648" y="629.9">Rozdzielacz</tspan>
      <tspan x="648" y="645.9">wejścia</tspan>
    </text>
  </g>
  <g>
    <polyline style="fill: none; fill-opacity:0; stroke-width: 2; stroke: #000000" points="731.359,653 779.68,653 779.68,616 811,616 "/>
    <g>
      <path style="fill: #ffffff" d="M 827 616 C 827,620 823,624 819,624 C 815,624 811,620 811,616 C 811,612 815,608 819,608 C 823,608 827,612 827,616z"/>
      <path style="fill: none; fill-opacity:0; stroke-width: 0.02; stroke: #ffffff" d="M 827 616 C 827,620 823,624 819,624 C 815,624 811,620 811,616 C 811,612 815,608 819,608 C 823,608 827,612 827,616"/>
    </g>
    <path style="fill: none; fill-opacity:0; stroke-width: 2; stroke: #000000" d="M 827 616 C 827,620 823,624 819,624 C 815,624 811,620 811,616 C 811,612 815,608 819,608 C 823,608 827,612 827,616"/>
    <text font-size="12.7998" style="fill: #000000;text-anchor:middle;font-family:monospace;font-style:normal;font-weight:normal" x="707.681" y="619.186">
      <tspan x="707.681" y="619.186"></tspan>
    </text>
  </g>
  <g>
    <polyline style="fill: none; fill-opacity:0; stroke-width: 2; stroke: #000000" points="731.359,653 779.68,653 779.68,676 811,676 "/>
    <g>
      <path style="fill: #ffffff" d="M 827 676 C 827,680 823,684 819,684 C 815,684 811,680 811,676 C 811,672 815,668 819,668 C 823,668 827,672 827,676z"/>
      <path style="fill: none; fill-opacity:0; stroke-width: 0.02; stroke: #ffffff" d="M 827 676 C 827,680 823,684 819,684 C 815,684 811,680 811,676 C 811,672 815,668 819,668 C 823,668 827,672 827,676"/>
    </g>
    <path style="fill: none; fill-opacity:0; stroke-width: 2; stroke: #000000" d="M 827 676 C 827,680 823,684 819,684 C 815,684 811,680 811,676 C 811,672 815,668 819,668 C 823,668 827,672 827,676"/>
    <text font-size="12.7998" style="fill: #000000;text-anchor:middle;font-family:monospace;font-style:normal;font-weight:normal" x="714.621" y="631.137">
      <tspan x="714.621" y="631.137"></tspan>
    </text>
  </g>
  <text font-size="12.7998" style="fill: #000000;text-anchor:middle;font-family:sans-serif;font-style:normal;font-weight:normal" x="818" y="695.9">
    <tspan x="818" y="695.9">Prędkości </tspan>
    <tspan x="818" y="711.9">kół</tspan>
  </text>
  <text font-size="12.7998" style="fill: #000000;text-anchor:middle;font-family:sans-serif;font-style:normal;font-weight:normal" x="818" y="636.274">
    <tspan x="818" y="636.274">Prędkości </tspan>
    <tspan x="818" y="652.274">kół</tspan>
  </text>
  <g>
    <polyline style="fill: none; fill-opacity:0; stroke-width: 2; stroke: #000000" points="936.992,565 882.496,565 882.496,616 844,616 "/>
    <path style="fill: none; fill-opacity:0; stroke-width: 2; stroke: #000000" d="M 836 624 C 840.418,624 844,620.418 844,616 C 844,611.582 840.418,608 836,608"/>
    <text font-size="12.7998" style="fill: #000000;text-anchor:middle;font-family:monospace;font-style:normal;font-weight:normal" x="999.624" y="525.859">
      <tspan x="999.624" y="525.859"></tspan>
    </text>
  </g>
  <g>
    <polyline style="fill: none; fill-opacity:0; stroke-width: 2; stroke: #000000" points="936.993,655 882.496,655 882.496,676 844,676 "/>
    <path style="fill: none; fill-opacity:0; stroke-width: 2; stroke: #000000" d="M 836 684 C 840.418,684 844,680.418 844,676 C 844,671.582 840.418,668 836,668"/>
    <text font-size="12.7998" style="fill: #000000;text-anchor:middle;font-family:monospace;font-style:normal;font-weight:normal" x="1007.06" y="617.128">
      <tspan x="1007.06" y="617.128"></tspan>
    </text>
  </g>
  <g>
    <g>
      <rect style="fill: #ffffff" x="1278" y="578" width="82.85" height="70"/>
      <rect style="fill: none; fill-opacity:0; stroke-width: 0.02; stroke: #ffffff" x="1278" y="578" width="82.85" height="70"/>
    </g>
    <rect style="fill: none; fill-opacity:0; stroke-width: 2; stroke: #000000" x="1278" y="578" width="82.85" height="70"/>
    <g>
      <rect style="fill: #ffffff" x="1258" y="592" width="40" height="14"/>
      <rect style="fill: none; fill-opacity:0; stroke-width: 0.02; stroke: #ffffff" x="1258" y="592" width="40" height="14"/>
    </g>
    <rect style="fill: none; fill-opacity:0; stroke-width: 2; stroke: #000000" x="1258" y="592" width="40" height="14"/>
    <g>
      <rect style="fill: #ffffff" x="1258" y="620" width="40" height="14"/>
      <rect style="fill: none; fill-opacity:0; stroke-width: 0.02; stroke: #ffffff" x="1258" y="620" width="40" height="14"/>
    </g>
    <rect style="fill: none; fill-opacity:0; stroke-width: 2; stroke: #000000" x="1258" y="620" width="40" height="14"/>
    <text font-size="12.7998" style="fill: #000000;text-anchor:start;font-family:sans-serif;font-style:normal;font-weight:normal" x="1306" y="603.9">
      <tspan x="1306" y="603.9">Zapis</tspan>
      <tspan x="1306" y="619.9">danych</tspan>
    </text>
  </g>
  <g>
    <polyline style="fill: none; fill-opacity:0; stroke-width: 2; stroke: #000000" points="598.993,653 541.007,653 541.007,631 "/>
    <path style="fill: none; fill-opacity:0; stroke-width: 2; stroke: #000000" d="M 533.007 622.994 C 533.004,627.412 536.583,630.997 541.001,631 C 545.419,631.003 549.004,627.424 549.007,623.006"/>
    <text font-size="12.7998" style="fill: #000000;text-anchor:middle;font-family:monospace;font-style:normal;font-weight:normal" x="636.619" y="635.97">
      <tspan x="636.619" y="635.97"></tspan>
    </text>
  </g>
  <g>
    <polyline style="fill: none; fill-opacity:0; stroke-width: 2; stroke: #000000" points="598.993,569 541.007,569 541.007,598 "/>
    <g>
      <path style="fill: #ffffff" d="M 541.007 614 C 537.007,614 533.007,610 533.007,606 C 533.007,602 537.007,598 541.007,598 C 545.007,598 549.007,602 549.007,606 C 549.007,610 545.007,614 541.007,614z"/>
      <path style="fill: none; fill-opacity:0; stroke-width: 0.02; stroke: #ffffff" d="M 541.007 614 C 537.007,614 533.007,610 533.007,606 C 533.007,602 537.007,598 541.007,598 C 545.007,598 549.007,602 549.007,606 C 549.007,610 545.007,614 541.007,614"/>
    </g>
    <path style="fill: none; fill-opacity:0; stroke-width: 2; stroke: #000000" d="M 541.007 614 C 537.007,614 533.007,610 533.007,606 C 533.007,602 537.007,598 541.007,598 C 545.007,598 549.007,602 549.007,606 C 549.007,610 545.007,614 541.007,614"/>
    <text font-size="12.7998" style="fill: #000000;text-anchor:middle;font-family:monospace;font-style:normal;font-weight:normal" x="622.187" y="533.701">
      <tspan x="622.187" y="533.701"></tspan>
    </text>
  </g>
  <text font-size="12.7998" style="fill: #000000;text-anchor:middle;font-family:sans-serif;font-style:normal;font-weight:normal" x="500" y="608.425">
    <tspan x="500" y="608.425">Prędkości </tspan>
    <tspan x="500" y="624.425">kół</tspan>
  </text>
  <g>
    <g>
      <rect style="fill: #ffffff" x="620" y="438" width="106.15" height="70"/>
      <rect style="fill: none; fill-opacity:0; stroke-width: 0.02; stroke: #ffffff" x="620" y="438" width="106.15" height="70"/>
    </g>
    <rect style="fill: none; fill-opacity:0; stroke-width: 2; stroke: #000000" x="620" y="438" width="106.15" height="70"/>
    <g>
      <rect style="fill: #ffffff" x="600" y="452" width="40" height="14"/>
      <rect style="fill: none; fill-opacity:0; stroke-width: 0.02; stroke: #ffffff" x="600" y="452" width="40" height="14"/>
    </g>
    <rect style="fill: none; fill-opacity:0; stroke-width: 2; stroke: #000000" x="600" y="452" width="40" height="14"/>
    <g>
      <rect style="fill: #ffffff" x="600" y="480" width="40" height="14"/>
      <rect style="fill: none; fill-opacity:0; stroke-width: 0.02; stroke: #ffffff" x="600" y="480" width="40" height="14"/>
    </g>
    <rect style="fill: none; fill-opacity:0; stroke-width: 2; stroke: #000000" x="600" y="480" width="40" height="14"/>
    <text font-size="12.7998" style="fill: #000000;text-anchor:start;font-family:sans-serif;font-style:normal;font-weight:normal" x="648" y="463.9">
      <tspan x="648" y="463.9">Generator</tspan>
      <tspan x="648" y="479.9">sterowania</tspan>
    </text>
  </g>
  <text font-size="12.7998" style="fill: #000000;text-anchor:middle;font-family:sans-serif;font-style:normal;font-weight:normal" x="832" y="527.9">
    <tspan x="832" y="527.9">Prędkość i</tspan>
    <tspan x="832" y="543.9">rotacja bazy</tspan>
  </text>
  <g>
    <polyline style="fill: none; fill-opacity:0; stroke-width: 2; stroke: #000000" points="726.156,473 780,473 780,519 "/>
    <path style="fill: #ffffff" d="M 780 535 C 776,535 772,531 772,527 C 772,523 776,519 780,519 C 784,519 788,523 788,527 C 788,531 784,535 780,535z"/>
    <path style="fill: none; fill-opacity:0; stroke-width: 2; stroke: #000000" d="M 780 535 C 776,535 772,531 772,527 C 772,523 776,519 780,519 C 784,519 788,523 788,527 C 788,531 784,535 780,535"/>
    <text font-size="12.8" style="fill: #000000;text-anchor:middle;font-family:monospace;font-style:normal;font-weight:normal" x="714.307" y="464.425">
      <tspan x="714.307" y="464.425"></tspan>
    </text>
  </g>
  <g>
    <polyline style="fill: none; fill-opacity:0; stroke-width: 2; stroke: #000000" points="675.95,555 675.95,568 780,568 780,552 "/>
    <path style="fill: none; fill-opacity:0; stroke-width: 2; stroke: #000000" d="M 772,543.994 A 8,8 0 1 0 788,544.006"/>
    <text font-size="12.8" style="fill: #000000;text-anchor:middle;font-family:monospace;font-style:normal;font-weight:normal" x="719.495" y="548.395">
      <tspan x="719.495" y="548.395"></tspan>
    </text>
  </g>
  <g>
    <g>
      <rect style="fill: #ffffff" x="620" y="520" width="111.9" height="70"/>
      <rect style="fill: none; fill-opacity:0; stroke-width: 0.02; stroke: #ffffff" x="620" y="520" width="111.9" height="70"/>
    </g>
    <rect style="fill: none; fill-opacity:0; stroke-width: 2; stroke: #000000" x="620" y="520" width="111.9" height="70"/>
    <g>
      <rect style="fill: #ffffff" x="600" y="534" width="40" height="14"/>
      <rect style="fill: none; fill-opacity:0; stroke-width: 0.02; stroke: #ffffff" x="600" y="534" width="40" height="14"/>
    </g>
    <rect style="fill: none; fill-opacity:0; stroke-width: 2; stroke: #000000" x="600" y="534" width="40" height="14"/>
    <g>
      <rect style="fill: #ffffff" x="600" y="562" width="40" height="14"/>
      <rect style="fill: none; fill-opacity:0; stroke-width: 0.02; stroke: #ffffff" x="600" y="562" width="40" height="14"/>
    </g>
    <rect style="fill: none; fill-opacity:0; stroke-width: 2; stroke: #000000" x="600" y="562" width="40" height="14"/>
    <text font-size="12.7998" style="fill: #000000;text-anchor:start;font-family:sans-serif;font-style:normal;font-weight:normal" x="648" y="545.9">
      <tspan x="648" y="545.9">Kinematyka</tspan>
      <tspan x="648" y="561.9">odwrotna</tspan>
    </text>
  </g>
</svg>
